<svg width="26" height="26" viewBox="0 0 26 26" fill="none" xmlns="http://www.w3.org/2000/svg">
<path d="M24.375 11.7693V11.3627H24.7812C25.1045 11.3627 25.4145 11.2342 25.643 11.0055C25.8716 10.7767 26 10.4665 26 10.143V8.51675C26 8.50374 25.9935 8.49235 25.9927 8.47934C25.9901 8.45175 25.9847 8.42449 25.9764 8.39803C25.9529 8.32289 25.908 8.25622 25.8472 8.20613C25.8375 8.198 25.831 8.18661 25.8204 8.17848L14.1302 0.34472C13.796 0.120009 13.4026 0 13 0C12.5974 0 12.204 0.120009 11.8698 0.34472L0.180375 8.17929C0.169 8.18661 0.163312 8.198 0.153563 8.20694C0.091955 8.25623 0.0468776 8.32319 0.024375 8.39884C0.0161528 8.42531 0.0107068 8.45256 0.008125 8.48015C0.008125 8.49317 0.0008125 8.50374 0.0008125 8.51756V10.1438C0.0008125 10.4673 0.129216 10.7776 0.357776 11.0063C0.586336 11.235 0.89633 11.3635 1.21956 11.3635H1.625V11.7701C1.62604 12.0215 1.70466 12.2664 1.8501 12.4713C1.99554 12.6763 2.20069 12.8312 2.4375 12.915V21.1578C2.20069 21.2416 1.99554 21.3965 1.8501 21.6015C1.70466 21.8064 1.62604 22.0513 1.625 22.3027V22.7475H1.21875C0.895517 22.7475 0.585524 22.876 0.356964 23.1047C0.128404 23.3334 0 23.6437 0 23.9672L0 25.5934C0 25.7013 0.0428012 25.8047 0.118988 25.8809C0.195175 25.9572 0.298506 26 0.40625 26H25.5938C25.7015 26 25.8048 25.9572 25.881 25.8809C25.9572 25.8047 26 25.7013 26 25.5934V23.9672C26 23.6437 25.8716 23.3334 25.643 23.1047C25.4145 22.876 25.1045 22.7475 24.7812 22.7475H24.375V22.3027C24.374 22.0513 24.2953 21.8064 24.1499 21.6015C24.0045 21.3965 23.7993 21.2416 23.5625 21.1578V12.9142C23.7993 12.8304 24.0045 12.6754 24.1499 12.4705C24.2953 12.2656 24.374 12.0207 24.375 11.7693ZM12.3224 1.02044C12.5227 0.885291 12.7588 0.813092 13.0004 0.813092C13.242 0.813092 13.4781 0.885291 13.6784 1.02044L24.2572 8.11018H1.74281L12.3224 1.02044ZM2.4375 22.3019C2.43834 22.2115 2.46959 22.1241 2.52621 22.0537C2.58282 21.9833 2.66149 21.9341 2.7495 21.914C2.78003 21.9241 2.81169 21.9304 2.84375 21.9327H5.28125C5.31331 21.9304 5.34497 21.9241 5.3755 21.914C5.46351 21.9341 5.54218 21.9833 5.59879 22.0537C5.65541 22.1241 5.68666 22.2115 5.6875 22.3019V22.7084H2.4375V22.3019ZM2.84375 12.1759C2.73601 12.1759 2.63267 12.133 2.55649 12.0568C2.4803 11.9805 2.4375 11.8771 2.4375 11.7693V11.3627H5.6875V11.7693C5.6875 11.8771 5.6447 11.9805 5.56851 12.0568C5.49233 12.133 5.38899 12.1759 5.28125 12.1759H2.84375ZM4.875 12.989V21.0821H3.25V12.989H4.875ZM24.7812 23.5598C24.889 23.5598 24.9923 23.6026 25.0685 23.6789C25.1447 23.7551 25.1875 23.8585 25.1875 23.9663V25.1861H0.8125V23.9663C0.8125 23.8585 0.855301 23.7551 0.931488 23.6789C1.00767 23.6026 1.11101 23.5598 1.21875 23.5598H9.75C9.85774 23.5598 9.96108 23.5169 10.0373 23.4407C10.1134 23.3645 10.1562 23.261 10.1562 23.1532C10.1562 23.0454 10.1134 22.942 10.0373 22.8657C9.96108 22.7895 9.85774 22.7466 9.75 22.7466H6.5V22.3019C6.49896 22.0505 6.42034 21.8056 6.2749 21.6006C6.12946 21.3957 5.92431 21.2407 5.6875 21.157V12.9142C5.92431 12.8304 6.12946 12.6754 6.2749 12.4705C6.42034 12.2656 6.49896 12.0207 6.5 11.7693V11.3627H8.9375C9.04524 11.3627 9.14858 11.3199 9.22476 11.2436C9.30095 11.1674 9.34375 11.064 9.34375 10.9562C9.34375 10.8483 9.30095 10.7449 9.22476 10.6687C9.14858 10.5924 9.04524 10.5496 8.9375 10.5496H1.21875C1.11101 10.5496 1.00767 10.5068 0.931488 10.4305C0.855301 10.3543 0.8125 10.2508 0.8125 10.143V8.92331H25.1875V10.143C25.1875 10.2508 25.1447 10.3543 25.0685 10.4305C24.9923 10.5068 24.889 10.5496 24.7812 10.5496H16.6562C16.5485 10.5496 16.4452 10.5924 16.369 10.6687C16.2928 10.7449 16.25 10.8483 16.25 10.9562C16.25 11.064 16.2928 11.1674 16.369 11.2436C16.4452 11.3199 16.5485 11.3627 16.6562 11.3627H19.5V11.7693C19.501 12.0207 19.5797 12.2656 19.7251 12.4705C19.8705 12.6754 20.0757 12.8304 20.3125 12.9142V21.1578C20.0757 21.2416 19.8705 21.3965 19.7251 21.6015C19.5797 21.8064 19.501 22.0513 19.5 22.3027V22.7475H15.8438C15.736 22.7475 15.6327 22.7903 15.5565 22.8665C15.4803 22.9428 15.4375 23.0462 15.4375 23.154C15.4375 23.2619 15.4803 23.3653 15.5565 23.4415C15.6327 23.5178 15.736 23.5606 15.8438 23.5606L24.7812 23.5598ZM23.1562 21.9335C23.1883 21.9312 23.22 21.9249 23.2505 21.9148C23.3385 21.9349 23.4172 21.9841 23.4738 22.0545C23.5304 22.1249 23.5617 22.2123 23.5625 22.3027V22.7092H20.3125V22.3027C20.3133 22.2123 20.3446 22.1249 20.4012 22.0545C20.4578 21.9841 20.5365 21.9349 20.6245 21.9148C20.655 21.9249 20.6867 21.9312 20.7188 21.9335H23.1562ZM21.125 21.0821V12.989H22.75V21.0821H21.125ZM23.1562 12.1759H20.7188C20.611 12.1759 20.5077 12.133 20.4315 12.0568C20.3553 11.9805 20.3125 11.8771 20.3125 11.7693V11.3627H23.5625V11.7693C23.5625 11.8771 23.5197 11.9805 23.4435 12.0568C23.3673 12.133 23.264 12.1759 23.1562 12.1759ZM18.2812 15.835C18.2822 14.8657 18.0167 13.9148 17.514 13.0863C17.0112 12.2579 16.2905 11.5837 15.4306 11.1376C14.5708 10.6915 13.6049 10.4906 12.6386 10.5569C11.6724 10.6233 10.7429 10.9542 9.95199 11.5136C9.16104 12.0731 8.53904 12.8394 8.15401 13.7288C7.76898 14.6182 7.63575 15.5964 7.76889 16.5565C7.90204 17.5166 8.29643 18.4216 8.90894 19.1724C9.52144 19.9233 10.3285 20.4911 11.2418 20.8138C11.3436 20.8492 11.4553 20.8426 11.5522 20.7956C11.6492 20.7485 11.7236 20.6649 11.7589 20.563C11.7942 20.4611 11.7877 20.3493 11.7407 20.2522C11.6937 20.1552 11.6101 20.0808 11.5082 20.0454C10.5147 19.6933 9.67757 19.0011 9.14464 18.0911C8.6117 17.1811 8.41731 16.1118 8.5958 15.0723C8.77429 14.0327 9.31419 13.0898 10.1201 12.41C10.926 11.7303 11.946 11.3574 13 11.3574C14.054 11.3574 15.074 11.7303 15.8799 12.41C16.6858 13.0898 17.2257 14.0327 17.4042 15.0723C17.5827 16.1118 17.3883 17.1811 16.8554 18.0911C16.3224 19.0011 15.4853 19.6933 14.4918 20.0454C14.4006 20.0766 14.3236 20.1393 14.2743 20.2221C14.2251 20.3049 14.2068 20.4025 14.2228 20.4976C14.2388 20.5926 14.2881 20.6789 14.3617 20.741C14.4354 20.8031 14.5287 20.837 14.625 20.8366C14.6703 20.8367 14.7153 20.8293 14.7582 20.8146C15.7891 20.4529 16.682 19.7793 17.3132 18.8871C17.9445 17.9948 18.2828 16.9282 18.2812 15.835ZM13 3.19314C12.6786 3.19314 12.3644 3.28852 12.0972 3.46721C11.83 3.64591 11.6217 3.8999 11.4987 4.19706C11.3757 4.49423 11.3435 4.82122 11.4062 5.13668C11.4689 5.45215 11.6237 5.74192 11.851 5.96936C12.0782 6.1968 12.3678 6.35169 12.683 6.41444C12.9982 6.47719 13.3249 6.44498 13.6219 6.32189C13.9188 6.1988 14.1726 5.99036 14.3511 5.72292C14.5297 5.45548 14.625 5.14106 14.625 4.81941C14.625 4.3881 14.4538 3.97445 14.149 3.66946C13.8443 3.36448 13.431 3.19314 13 3.19314ZM13 5.63255C12.8393 5.63255 12.6822 5.58486 12.5486 5.49551C12.415 5.40616 12.3108 5.27917 12.2493 5.13059C12.1879 4.982 12.1718 4.81851 12.2031 4.66078C12.2345 4.50304 12.3118 4.35816 12.4255 4.24444C12.5391 4.13072 12.6839 4.05327 12.8415 4.0219C12.9991 3.99052 13.1625 4.00663 13.3109 4.06817C13.4594 4.12972 13.5863 4.23394 13.6756 4.36766C13.7648 4.50138 13.8125 4.65859 13.8125 4.81941C13.8125 5.03507 13.7269 5.24189 13.5745 5.39439C13.4222 5.54688 13.2155 5.63255 13 5.63255ZM13.8621 21.7164L13.4062 22.1726V20.7138C13.4062 20.606 13.3634 20.5026 13.2873 20.4263C13.2111 20.3501 13.1077 20.3072 13 20.3072C12.8923 20.3072 12.7889 20.3501 12.7127 20.4263C12.6366 20.5026 12.5938 20.606 12.5938 20.7138V22.1718L12.1379 21.7156C12.0613 21.6415 11.9587 21.6005 11.8522 21.6015C11.7457 21.6024 11.6438 21.6452 11.5684 21.7205C11.4931 21.7959 11.4504 21.8979 11.4495 22.0045C11.4486 22.1111 11.4895 22.2138 11.5635 22.2905L12.7116 23.4394C12.7493 23.4773 12.7941 23.5073 12.8435 23.5278C12.8928 23.5483 12.9458 23.5589 12.9992 23.5589C13.0526 23.5589 13.1055 23.5483 13.1549 23.5278C13.2042 23.5073 13.2491 23.4773 13.2868 23.4394L14.4349 22.2905C14.5089 22.2138 14.5498 22.1111 14.5489 22.0045C14.548 21.8979 14.5052 21.7959 14.4299 21.7205C14.3546 21.6452 14.2527 21.6024 14.1462 21.6015C14.0397 21.6005 13.9371 21.6415 13.8604 21.7156L13.8621 21.7164ZM13.4062 17.8678H12.5938C12.3783 17.8678 12.1716 17.7822 12.0192 17.6297C11.8669 17.4772 11.7812 17.2703 11.7812 17.0547C11.7812 16.9469 11.7384 16.8434 11.6623 16.7672C11.5861 16.6909 11.4827 16.6481 11.375 16.6481C11.2673 16.6481 11.1639 16.6909 11.0877 16.7672C11.0116 16.8434 10.9688 16.9469 10.9688 17.0547C10.9688 17.486 11.14 17.8996 11.4447 18.2046C11.7494 18.5096 12.1628 18.681 12.5938 18.681V19.0875C12.5938 19.1954 12.6366 19.2988 12.7127 19.375C12.7889 19.4513 12.8923 19.4941 13 19.4941C13.1077 19.4941 13.2111 19.4513 13.2873 19.375C13.3634 19.2988 13.4062 19.1954 13.4062 19.0875V18.681C13.8372 18.681 14.2506 18.5096 14.5553 18.2046C14.86 17.8996 15.0312 17.486 15.0312 17.0547C15.0312 16.6234 14.86 16.2097 14.5553 15.9047C14.2506 15.5997 13.8372 15.4284 13.4062 15.4284H12.5938C12.3783 15.4284 12.1716 15.3427 12.0192 15.1902C11.8669 15.0378 11.7812 14.8309 11.7812 14.6153C11.7812 14.3996 11.8669 14.1928 12.0192 14.0403C12.1716 13.8878 12.3783 13.8021 12.5938 13.8021H13.4062C13.6217 13.8021 13.8284 13.8878 13.9808 14.0403C14.1331 14.1928 14.2188 14.3996 14.2188 14.6153C14.2188 14.7231 14.2616 14.8265 14.3377 14.9028C14.4139 14.979 14.5173 15.0218 14.625 15.0218C14.7327 15.0218 14.8361 14.979 14.9123 14.9028C14.9884 14.8265 15.0312 14.7231 15.0312 14.6153C15.0312 14.184 14.86 13.7703 14.5553 13.4653C14.2506 13.1603 13.8372 12.989 13.4062 12.989V12.5824C13.4062 12.4746 13.3634 12.3712 13.2873 12.2949C13.2111 12.2187 13.1077 12.1759 13 12.1759C12.8923 12.1759 12.7889 12.2187 12.7127 12.2949C12.6366 12.3712 12.5938 12.4746 12.5938 12.5824V12.989C12.1628 12.989 11.7494 13.1603 11.4447 13.4653C11.14 13.7703 10.9688 14.184 10.9688 14.6153C10.9688 15.0466 11.14 15.4602 11.4447 15.7652C11.7494 16.0702 12.1628 16.2415 12.5938 16.2415H13.4062C13.6217 16.2415 13.8284 16.3272 13.9808 16.4797C14.1331 16.6322 14.2188 16.839 14.2188 17.0547C14.2188 17.2703 14.1331 17.4772 13.9808 17.6297C13.8284 17.7822 13.6217 17.8678 13.4062 17.8678Z" fill="#167FFC"/>
</svg>
