<svg width="48" height="48" viewBox="0 0 48 48" fill="none" xmlns="http://www.w3.org/2000/svg">
<path d="M38.8802 26C38.4402 26 37.9802 25.86 37.5402 25.76C36.6492 25.5636 35.7735 25.3029 34.9202 24.98C33.9924 24.6424 32.9725 24.66 32.0568 25.0292C31.1411 25.3984 30.3944 26.0932 29.9602 26.98L29.5202 27.88C27.5722 26.7963 25.7822 25.4504 24.2002 23.88C22.6297 22.298 21.2838 20.508 20.2002 18.56L21.0402 18C21.9269 17.5658 22.6218 16.819 22.991 15.9034C23.3602 14.9877 23.3777 13.9678 23.0402 13.04C22.7226 12.1848 22.4621 11.3096 22.2602 10.42C22.1602 9.97998 22.0802 9.51998 22.0202 9.05998C21.7773 7.65122 21.0395 6.37546 19.9394 5.46246C18.8394 4.54945 17.4496 4.0592 16.0202 4.07998H10.0202C9.15827 4.07189 8.3047 4.24961 7.51762 4.60104C6.73054 4.95248 6.02842 5.46937 5.45906 6.11654C4.8897 6.76372 4.46647 7.52597 4.21818 8.35141C3.96988 9.17685 3.90236 10.0461 4.0202 10.9C5.08568 19.2787 8.91226 27.0637 14.8955 33.0252C20.8788 38.9868 28.6776 42.785 37.0602 43.82H37.8202C39.295 43.8221 40.719 43.281 41.8202 42.3C42.4529 41.7341 42.9584 41.0403 43.3031 40.2646C43.6479 39.4889 43.8241 38.6488 43.8202 37.8V31.8C43.7957 30.4107 43.2898 29.0731 42.3889 28.0153C41.488 26.9575 40.2478 26.2452 38.8802 26ZM39.8802 38C39.8798 38.2839 39.819 38.5646 39.7018 38.8232C39.5845 39.0819 39.4135 39.3126 39.2002 39.5C38.9767 39.6929 38.7154 39.8371 38.433 39.9232C38.1506 40.0093 37.8533 40.0354 37.5602 40C30.07 39.0396 23.1127 35.6129 17.7856 30.2606C12.4586 24.9082 9.06502 17.9347 8.1402 10.44C8.10837 10.147 8.13627 9.85064 8.22221 9.56876C8.30814 9.28688 8.45034 9.02535 8.6402 8.79998C8.82762 8.58664 9.05832 8.41566 9.31696 8.29841C9.57559 8.18117 9.85623 8.12034 10.1402 8.11998H16.1402C16.6053 8.10963 17.0594 8.26174 17.4245 8.55012C17.7895 8.8385 18.0426 9.24512 18.1402 9.69998C18.2202 10.2466 18.3202 10.7866 18.4402 11.32C18.6712 12.3743 18.9787 13.4103 19.3602 14.42L16.5602 15.72C16.3208 15.8298 16.1054 15.9859 15.9265 16.1792C15.7476 16.3725 15.6086 16.5992 15.5175 16.8464C15.4265 17.0935 15.3851 17.3562 15.3959 17.6194C15.4067 17.8826 15.4693 18.1411 15.5802 18.38C18.4586 24.5455 23.4147 29.5016 29.5802 32.38C30.0671 32.58 30.6133 32.58 31.1002 32.38C31.3496 32.2908 31.5788 32.1529 31.7745 31.9743C31.9702 31.7958 32.1285 31.5802 32.2402 31.34L33.4802 28.54C34.5141 28.9097 35.5694 29.217 36.6402 29.46C37.1735 29.58 37.7135 29.68 38.2602 29.76C38.7151 29.8576 39.1217 30.1106 39.4101 30.4757C39.6984 30.8407 39.8506 31.2949 39.8402 31.76L39.8802 38ZM43.7202 5.35998C43.5173 4.87128 43.1289 4.48293 42.6402 4.27998C42.3998 4.1775 42.1416 4.12314 41.8802 4.11998H33.8802C33.3498 4.11998 32.8411 4.33069 32.466 4.70577C32.0909 5.08084 31.8802 5.58955 31.8802 6.11998C31.8802 6.65041 32.0909 7.15912 32.466 7.53419C32.8411 7.90927 33.3498 8.11998 33.8802 8.11998H37.0402L30.4602 14.72C30.0877 15.0947 29.8786 15.6016 29.8786 16.13C29.8786 16.6583 30.0877 17.1653 30.4602 17.54C30.8349 17.9125 31.3418 18.1216 31.8702 18.1216C32.3986 18.1216 32.9055 17.9125 33.2802 17.54L39.8802 10.96V14.12C39.8802 14.6504 40.0909 15.1591 40.466 15.5342C40.8411 15.9093 41.3498 16.12 41.8802 16.12C42.4106 16.12 42.9193 15.9093 43.2944 15.5342C43.6695 15.1591 43.8802 14.6504 43.8802 14.12V6.11998C43.877 5.85863 43.8227 5.60042 43.7202 5.35998Z" fill="white"/>
</svg>
