<svg width="26" height="27" viewBox="0 0 26 27" fill="none" xmlns="http://www.w3.org/2000/svg">
<path d="M25.5187 10.6849C25.366 10.5319 25.1847 10.4105 24.985 10.3277C24.7854 10.2449 24.5714 10.2023 24.3553 10.2023C24.1392 10.2023 23.9252 10.2449 23.7255 10.3277C23.5259 10.4105 23.3446 10.5319 23.1919 10.6849L22.37 11.5068L19.7251 14.1517V6.16434C19.7227 6.14658 19.7191 6.12901 19.7144 6.11173C19.7123 6.09454 19.709 6.07751 19.7045 6.06078C19.6885 5.99087 19.6542 5.92647 19.6051 5.8742L13.8517 0.120821C13.7997 0.0715405 13.7356 0.0369371 13.6659 0.0205478C13.6495 0.0161134 13.6327 0.0128179 13.6158 0.0106849C13.598 0.00586947 13.5798 0.00229923 13.5615 0L2.05478 0C1.50982 0 0.987177 0.216485 0.601831 0.601831C0.216485 0.987177 0 1.50982 0 2.05478V24.2464C0 24.7914 0.216485 25.314 0.601831 25.6993C0.987177 26.0847 1.50982 26.3012 2.05478 26.3012H17.6711C17.9409 26.3012 18.2081 26.248 18.4574 26.1448C18.7067 26.0415 18.9332 25.8901 19.124 25.6993C19.3148 25.5085 19.4662 25.282 19.5695 25.0327C19.6727 24.7834 19.7259 24.5162 19.7259 24.2464V18.802L24.6952 13.8328L25.5171 13.0109C25.67 12.8583 25.7914 12.6771 25.8742 12.4776C25.9571 12.2781 25.9998 12.0642 26 11.8482C26.0002 11.6322 25.9577 11.4182 25.8751 11.2186C25.7926 11.019 25.6714 10.8376 25.5187 10.6849ZM13.9725 1.403L18.3229 5.75338H15.2054C14.8784 5.75338 14.5648 5.62349 14.3336 5.39228C14.1024 5.16108 13.9725 4.84749 13.9725 4.52051V1.403ZM13.5755 5.75338H3.6986C3.58961 5.75338 3.48508 5.71008 3.40801 5.63301C3.33094 5.55595 3.28765 5.45142 3.28765 5.34243V3.6986C3.28765 3.58961 3.33094 3.48508 3.40801 3.40801C3.48508 3.33094 3.58961 3.28765 3.6986 3.28765H13.1506V4.52051C13.1532 4.96695 13.3025 5.40016 13.5755 5.75338ZM18.9073 24.2464C18.9073 24.5734 18.7774 24.887 18.5462 25.1182C18.3149 25.3494 18.0014 25.4793 17.6744 25.4793H2.05807C1.73109 25.4793 1.41751 25.3494 1.1863 25.1182C0.95509 24.887 0.825199 24.5734 0.825199 24.2464V2.05478C0.825198 1.72837 0.954638 1.41528 1.18513 1.18417C1.41563 0.953057 1.72837 0.822782 2.05478 0.821912H13.1506V2.46573H3.6986C3.37163 2.46573 3.05804 2.59563 2.82683 2.82683C2.59563 3.05804 2.46573 3.37163 2.46573 3.6986V5.34243C2.46573 5.6694 2.59563 5.98299 2.82683 6.21419C3.05804 6.4454 3.37163 6.57529 3.6986 6.57529H18.904V14.9744L14.1854 19.693C14.1668 19.7153 14.1509 19.7395 14.1377 19.7653C14.1295 19.7785 14.1155 19.7859 14.1089 19.7999L12.9468 22.1242C12.9136 22.1942 12.9013 22.2722 12.9112 22.349C12.9211 22.4258 12.9528 22.4981 13.0026 22.5574L12.4914 23.0735C12.4493 23.1109 12.4154 23.1565 12.3916 23.2076C12.3679 23.2586 12.3549 23.314 12.3535 23.3702C12.352 23.4265 12.3622 23.4825 12.3832 23.5347C12.4043 23.5868 12.4359 23.6341 12.476 23.6736C12.5161 23.7131 12.5639 23.744 12.6164 23.7642C12.6689 23.7845 12.725 23.7937 12.7813 23.7914C12.8375 23.7891 12.8927 23.7752 12.9433 23.7507C12.994 23.7262 13.0391 23.6915 13.0758 23.6489L13.573 23.1459L13.6043 23.1771C13.6652 23.2381 13.7438 23.2784 13.8289 23.2922C13.914 23.3061 14.0014 23.2929 14.0785 23.2543L16.4029 22.0913C16.4169 22.0848 16.4243 22.0708 16.4374 22.0626C16.4632 22.0494 16.4875 22.0334 16.5097 22.0149L18.904 19.6215L18.9073 24.2464ZM14.5922 20.6777L15.5292 21.6146L13.9799 22.3897L13.8689 22.2779V22.273H13.864L13.8213 22.2302L14.5922 20.6777ZM19.0305 18.3401L16.2262 21.1437L15.055 19.984L22.6593 12.3796L23.8215 13.5418L19.0305 18.3401ZM24.9425 12.4281L24.41 12.9607L23.2469 11.7977L23.7795 11.2651C23.8559 11.1888 23.9466 11.1282 24.0463 11.0869C24.1461 11.0455 24.2531 11.0243 24.361 11.0243C24.469 11.0243 24.576 11.0455 24.6758 11.0869C24.7755 11.1282 24.8662 11.1888 24.9425 11.2651C25.0189 11.3415 25.0795 11.4321 25.1208 11.5319C25.1621 11.6317 25.1834 11.7386 25.1834 11.8466C25.1834 11.9546 25.1621 12.0616 25.1208 12.1613C25.0795 12.2611 25.0189 12.3518 24.9425 12.4281ZM6.98625 13.1506H16.8492C16.9582 13.1506 17.0627 13.1073 17.1398 13.0302C17.2168 12.9531 17.2601 12.8486 17.2601 12.7396C17.2601 12.6306 17.2168 12.5261 17.1398 12.449C17.0627 12.372 16.9582 12.3287 16.8492 12.3287H6.98625C6.87726 12.3287 6.77273 12.372 6.69566 12.449C6.61859 12.5261 6.57529 12.6306 6.57529 12.7396C6.57529 12.8486 6.61859 12.9531 6.69566 13.0302C6.77273 13.1073 6.87726 13.1506 6.98625 13.1506ZM6.98625 10.6849H16.8492C16.9582 10.6849 17.0627 10.6416 17.1398 10.5645C17.2168 10.4874 17.2601 10.3829 17.2601 10.2739C17.2601 10.1649 17.2168 10.0604 17.1398 9.9833C17.0627 9.90624 16.9582 9.86294 16.8492 9.86294H6.98625C6.87726 9.86294 6.77273 9.90624 6.69566 9.9833C6.61859 10.0604 6.57529 10.1649 6.57529 10.2739C6.57529 10.3829 6.61859 10.4874 6.69566 10.5645C6.77273 10.6416 6.87726 10.6849 6.98625 10.6849ZM11.0958 22.9519C10.7793 22.9599 10.4686 22.865 10.2106 22.6815C9.82117 22.4287 9.36683 22.2941 8.90253 22.2941C8.43824 22.2941 7.9839 22.4287 7.59446 22.6815C7.33644 22.865 7.02582 22.9599 6.70926 22.9519C6.3939 22.9605 6.08423 22.8667 5.82653 22.6848C5.44141 22.4243 4.98538 22.2888 4.52051 22.2968C4.41152 22.2968 4.30699 22.3401 4.22992 22.4172C4.15285 22.4943 4.10956 22.5988 4.10956 22.7078C4.10956 22.8168 4.15285 22.9213 4.22992 22.9984C4.30699 23.0754 4.41152 23.1187 4.52051 23.1187C4.83653 23.1109 5.14655 23.2058 5.40407 23.3891C5.78919 23.6496 6.24522 23.7851 6.71009 23.7771C7.17535 23.7852 7.63186 23.65 8.01775 23.39C8.27917 23.2137 8.58726 23.1196 8.90253 23.1196C9.2178 23.1196 9.5259 23.2137 9.78732 23.39C10.1732 23.65 10.6297 23.7852 11.095 23.7771C11.204 23.7771 11.3085 23.7338 11.3856 23.6567C11.4626 23.5796 11.5059 23.4751 11.5059 23.3661C11.5059 23.2571 11.4626 23.1526 11.3856 23.0755C11.3085 22.9985 11.204 22.9552 11.095 22.9552L11.0958 22.9519ZM6.98625 9.04103H16.8492C16.9582 9.04103 17.0627 8.99773 17.1398 8.92066C17.2168 8.84359 17.2601 8.73906 17.2601 8.63007C17.2601 8.52108 17.2168 8.41655 17.1398 8.33948C17.0627 8.26241 16.9582 8.21912 16.8492 8.21912H6.98625C6.87726 8.21912 6.77273 8.26241 6.69566 8.33948C6.61859 8.41655 6.57529 8.52108 6.57529 8.63007C6.57529 8.73906 6.61859 8.84359 6.69566 8.92066C6.77273 8.99773 6.87726 9.04103 6.98625 9.04103ZM6.98625 14.7944H16.8492C16.9582 14.7944 17.0627 14.7511 17.1398 14.674C17.2168 14.597 17.2601 14.4924 17.2601 14.3835C17.2601 14.2745 17.2168 14.1699 17.1398 14.0929C17.0627 14.0158 16.9582 13.9725 16.8492 13.9725H6.98625C6.87726 13.9725 6.77273 14.0158 6.69566 14.0929C6.61859 14.1699 6.57529 14.2745 6.57529 14.3835C6.57529 14.4924 6.61859 14.597 6.69566 14.674C6.77273 14.7511 6.87726 14.7944 6.98625 14.7944ZM3.6986 14.7944C3.94244 14.7944 4.1808 14.7221 4.38355 14.5866C4.58629 14.4512 4.74431 14.2586 4.83762 14.0333C4.93094 13.8081 4.95535 13.5602 4.90778 13.321C4.86021 13.0819 4.74279 12.8622 4.57037 12.6898C4.39795 12.5174 4.17828 12.3999 3.93912 12.3524C3.69997 12.3048 3.45208 12.3292 3.2268 12.4225C3.00153 12.5158 2.80898 12.6739 2.67351 12.8766C2.53804 13.0793 2.46573 13.3177 2.46573 13.5615C2.46573 13.8885 2.59563 14.2021 2.82683 14.4333C3.05804 14.6645 3.37163 14.7944 3.6986 14.7944ZM3.6986 13.1506C3.77988 13.1506 3.85933 13.1747 3.92692 13.2198C3.9945 13.265 4.04717 13.3292 4.07828 13.4043C4.10938 13.4794 4.11752 13.562 4.10166 13.6417C4.0858 13.7214 4.04666 13.7947 3.98919 13.8521C3.93172 13.9096 3.85849 13.9487 3.77878 13.9646C3.69906 13.9805 3.61643 13.9723 3.54134 13.9412C3.46624 13.9101 3.40206 13.8574 3.3569 13.7899C3.31175 13.7223 3.28765 13.6428 3.28765 13.5615C3.28765 13.4525 3.33094 13.348 3.40801 13.271C3.48508 13.1939 3.58961 13.1506 3.6986 13.1506ZM4.93147 17.6711C4.93147 17.4273 4.85916 17.1889 4.72369 16.9862C4.58822 16.7834 4.39568 16.6254 4.1704 16.5321C3.94512 16.4388 3.69723 16.4144 3.45808 16.4619C3.21893 16.5095 2.99925 16.6269 2.82683 16.7993C2.65441 16.9718 2.53699 17.1914 2.48942 17.4306C2.44185 17.6697 2.46627 17.9176 2.55958 18.1429C2.65289 18.3682 2.81091 18.5607 3.01366 18.6962C3.2164 18.8317 3.45476 18.904 3.6986 18.904C4.02558 18.904 4.33916 18.7741 4.57037 18.5429C4.80158 18.3117 4.93147 17.9981 4.93147 17.6711ZM3.6986 18.0821C3.61732 18.0821 3.53787 18.058 3.47029 18.0128C3.40271 17.9676 3.35003 17.9035 3.31893 17.8284C3.28782 17.7533 3.27969 17.6706 3.29554 17.5909C3.3114 17.5112 3.35054 17.438 3.40801 17.3805C3.46549 17.323 3.53871 17.2839 3.61843 17.268C3.69815 17.2522 3.78078 17.2603 3.85587 17.2914C3.93096 17.3225 3.99514 17.3752 4.0403 17.4428C4.08546 17.5104 4.10956 17.5898 4.10956 17.6711C4.10956 17.7801 4.06626 17.8846 3.98919 17.9617C3.91212 18.0388 3.80759 18.0821 3.6986 18.0821ZM6.98625 17.2601H13.5615C13.6705 17.2601 13.7751 17.2168 13.8521 17.1398C13.9292 17.0627 13.9725 16.9582 13.9725 16.8492C13.9725 16.7402 13.9292 16.6357 13.8521 16.5586C13.7751 16.4815 13.6705 16.4382 13.5615 16.4382H6.98625C6.87726 16.4382 6.77273 16.4815 6.69566 16.5586C6.61859 16.6357 6.57529 16.7402 6.57529 16.8492C6.57529 16.9582 6.61859 17.0627 6.69566 17.1398C6.77273 17.2168 6.87726 17.2601 6.98625 17.2601ZM3.6986 10.6849C3.94244 10.6849 4.1808 10.6125 4.38355 10.4771C4.58629 10.3416 4.74431 10.1491 4.83762 9.92378C4.93094 9.6985 4.95535 9.45061 4.90778 9.21146C4.86021 8.97231 4.74279 8.75263 4.57037 8.58021C4.39795 8.40779 4.17828 8.29038 3.93912 8.2428C3.69997 8.19523 3.45208 8.21965 3.2268 8.31296C3.00153 8.40627 2.80898 8.56429 2.67351 8.76704C2.53804 8.96978 2.46573 9.20815 2.46573 9.45198C2.46573 9.77896 2.59563 10.0925 2.82683 10.3238C3.05804 10.555 3.37163 10.6849 3.6986 10.6849ZM3.6986 9.04103C3.77988 9.04103 3.85933 9.06513 3.92692 9.11029C3.9945 9.15544 4.04717 9.21963 4.07828 9.29472C4.10938 9.36981 4.11752 9.45244 4.10166 9.53216C4.0858 9.61187 4.04666 9.6851 3.98919 9.74257C3.93172 9.80005 3.85849 9.83919 3.77878 9.85504C3.69906 9.8709 3.61643 9.86276 3.54134 9.83166C3.46624 9.80055 3.40206 9.74788 3.3569 9.6803C3.31175 9.61272 3.28765 9.53326 3.28765 9.45198C3.28765 9.34299 3.33094 9.23846 3.40801 9.16139C3.48508 9.08432 3.58961 9.04103 3.6986 9.04103ZM6.98625 18.904H13.5615C13.6705 18.904 13.7751 18.8607 13.8521 18.7836C13.9292 18.7065 13.9725 18.602 13.9725 18.493C13.9725 18.384 13.9292 18.2795 13.8521 18.2024C13.7751 18.1254 13.6705 18.0821 13.5615 18.0821H6.98625C6.87726 18.0821 6.77273 18.1254 6.69566 18.2024C6.61859 18.2795 6.57529 18.384 6.57529 18.493C6.57529 18.602 6.61859 18.7065 6.69566 18.7836C6.77273 18.8607 6.87726 18.904 6.98625 18.904Z" fill="#167FFC"/>
</svg>
