<svg width="59" height="59" viewBox="0 0 59 59" fill="none" xmlns="http://www.w3.org/2000/svg">
<g clip-path="url(#clip0_446_186)">
<path d="M12.9062 48.8594C13.1841 48.8591 13.4582 48.7961 13.7083 48.675C21.3386 44.9875 24.8906 39.294 24.8906 30.7574C24.8905 30.3095 24.7274 29.877 24.4317 29.5406C24.136 29.2042 23.728 28.9869 23.2838 28.9294C18.8496 28.355 17.157 27.1225 14.325 23.7134C14.1461 23.5144 13.9273 23.3554 13.6829 23.2465C13.4384 23.1376 13.1738 23.0813 12.9062 23.0813C12.6387 23.0813 12.3741 23.1376 12.1296 23.2465C11.8852 23.3554 11.6664 23.5144 11.4875 23.7134C8.65641 27.1216 6.96384 28.3541 2.5287 28.9284C2.08453 28.986 1.67648 29.2033 1.38079 29.5397C1.0851 29.8761 0.921969 30.3086 0.921875 30.7565C0.921875 39.2931 4.47478 44.9866 12.1042 48.6759C12.3543 48.7967 12.6285 48.8594 12.9062 48.8594ZM4.65823 32.3209C7.8687 31.8033 10.7914 30.1634 12.9062 27.6931C15.0211 30.1634 17.9438 31.8033 21.1543 32.3209C20.7763 38.196 18.1812 42.1573 12.9062 44.9497C7.63128 42.1573 5.03713 38.196 4.65823 32.3209ZM13.2879 40.0223C12.9422 40.3679 12.4733 40.5621 11.9844 40.5621C11.4955 40.5621 11.0266 40.3679 10.6808 40.0223L7.91522 37.2567C7.57937 36.9089 7.39352 36.4432 7.39773 35.9598C7.40193 35.4763 7.59583 35.0139 7.93768 34.6721C8.27952 34.3302 8.74196 34.1363 9.22538 34.1321C9.70881 34.1279 10.1745 34.3137 10.5223 34.6496L11.9844 36.1117L15.2902 32.8058C15.638 32.47 16.1037 32.2841 16.5871 32.2883C17.0705 32.2926 17.533 32.4865 17.8748 32.8283C18.2167 33.1702 18.4106 33.6326 18.4148 34.116C18.419 34.5994 18.2331 35.0652 17.8973 35.4129L13.2879 40.0223ZM56.2344 44.25H49.7812V6.45312C49.7795 4.98667 49.1962 3.58077 48.1593 2.54383C47.1224 1.50689 45.7165 0.923583 44.25 0.921875H14.75C13.2835 0.923583 11.8776 1.50689 10.8407 2.54383C9.80376 3.58077 9.22046 4.98667 9.21875 6.45312V19.3594C9.21875 19.8484 9.413 20.3173 9.75877 20.6631C10.1045 21.0089 10.5735 21.2031 11.0625 21.2031C11.5515 21.2031 12.0205 21.0089 12.3662 20.6631C12.712 20.3173 12.9062 19.8484 12.9062 19.3594V6.45312C12.9067 5.96428 13.1011 5.4956 13.4468 5.14994C13.7925 4.80427 14.2612 4.60986 14.75 4.60938H44.25C44.7388 4.60986 45.2075 4.80427 45.5532 5.14994C45.8989 5.4956 46.0933 5.96428 46.0938 6.45312V44.25H31.3438C30.8548 44.25 30.3858 44.4443 30.04 44.79C29.6943 45.1358 29.5 45.6048 29.5 46.0938C29.4976 48.2935 28.6226 50.4024 27.0672 51.9578C25.5118 53.5133 23.4028 54.3882 21.2031 54.3906C20.0712 54.3956 18.9505 54.1667 17.9111 53.7184C16.8718 53.2702 15.9362 52.6121 15.163 51.7854C14.8259 51.4365 14.3649 51.2346 13.88 51.2233C13.395 51.212 12.9251 51.3923 12.5721 51.7251C12.2192 52.0579 12.0116 52.5164 11.9945 53.0012C11.9773 53.486 12.1518 53.9581 12.4803 54.315C13.6029 55.5012 14.9552 56.4466 16.4548 57.0935C17.9544 57.7404 19.5699 58.0754 21.2031 58.0781H46.0938C49.2711 58.0745 52.3172 56.8107 54.5639 54.5639C56.8107 52.3172 58.0745 49.2711 58.0781 46.0938C58.0781 45.6048 57.8839 45.1358 57.5381 44.79C57.1923 44.4443 56.7234 44.25 56.2344 44.25ZM46.0938 54.3906H29.8439C31.5492 52.6199 32.6672 50.3666 33.0455 47.9375H54.1841C53.7639 49.7694 52.7351 51.4048 51.2658 52.5768C49.7964 53.7488 47.9733 54.3882 46.0938 54.3906ZM27.6562 8.29688V9.60962C28.184 9.83788 28.6643 10.1631 29.0722 10.5684C29.4181 10.9143 29.6123 11.3835 29.6122 11.8727C29.6122 12.3619 29.4178 12.831 29.0718 13.1768C28.7258 13.5227 28.2566 13.7169 27.7675 13.7168C27.2783 13.7167 26.8092 13.5223 26.4633 13.1764C26.3561 13.0691 26.2241 12.99 26.079 12.9459C25.9338 12.9019 25.7801 12.8944 25.6314 12.924C25.4826 12.9536 25.3435 13.0195 25.2263 13.1157C25.1091 13.212 25.0175 13.3356 24.9595 13.4758C24.9015 13.6159 24.879 13.7682 24.894 13.9191C24.909 14.07 24.961 14.2149 25.0453 14.341C25.1297 14.467 25.2438 14.5702 25.3777 14.6416C25.5115 14.713 25.6608 14.7502 25.8125 14.75C26.8723 14.7471 27.9006 15.1099 28.7239 15.7771C29.5472 16.4444 30.1151 17.3752 30.3318 18.4126C30.5484 19.45 30.4006 20.5303 29.9132 21.4713C29.4257 22.4123 28.6286 23.1564 27.6562 23.5779V24.8906C27.6562 25.3796 27.462 25.8486 27.1162 26.1944C26.7705 26.5401 26.3015 26.7344 25.8125 26.7344C25.3235 26.7344 24.8545 26.5401 24.5088 26.1944C24.163 25.8486 23.9688 25.3796 23.9688 24.8906V23.5779C23.441 23.3496 22.9607 23.0244 22.5528 22.6191C22.2069 22.2732 22.0127 21.804 22.0128 21.3148C22.0128 20.8256 22.2072 20.3565 22.5532 20.0107C22.8992 19.6648 23.3684 19.4706 23.8575 19.4707C24.3467 19.4708 24.8158 19.6652 25.1617 20.0111C25.2689 20.1184 25.4009 20.1975 25.546 20.2416C25.6912 20.2856 25.8449 20.2931 25.9936 20.2635C26.1424 20.2339 26.2815 20.168 26.3987 20.0718C26.5159 19.9755 26.6075 19.8519 26.6655 19.7117C26.7235 19.5716 26.746 19.4193 26.731 19.2684C26.716 19.1175 26.664 18.9726 26.5797 18.8465C26.4953 18.7205 26.3812 18.6173 26.2473 18.5459C26.1135 18.4745 25.9642 18.4373 25.8125 18.4375C24.7527 18.4404 23.7244 18.0776 22.9011 17.4104C22.0778 16.7431 21.5099 15.8123 21.2932 14.7749C21.0765 13.7375 21.2244 12.6572 21.7118 11.7162C22.1993 10.7752 22.9964 10.0311 23.9688 9.60962V8.29688C23.9688 7.80788 24.163 7.33892 24.5088 6.99315C24.8545 6.64738 25.3235 6.45312 25.8125 6.45312C26.3015 6.45312 26.7705 6.64738 27.1162 6.99315C27.462 7.33892 27.6562 7.80788 27.6562 8.29688ZM43.3281 33.1875C43.3281 33.6765 43.1339 34.1455 42.7881 34.4912C42.4423 34.837 41.9734 35.0312 41.4844 35.0312H37.7969C37.3079 35.0312 36.8389 34.837 36.4931 34.4912C36.1474 34.1455 35.9531 33.6765 35.9531 33.1875C35.9531 32.6985 36.1474 32.2295 36.4931 31.8838C36.8389 31.538 37.3079 31.3438 37.7969 31.3438H41.4844C41.9734 31.3438 42.4423 31.538 42.7881 31.8838C43.1339 32.2295 43.3281 32.6985 43.3281 33.1875ZM29.5 31.3438H32.2656C32.7546 31.3438 33.2236 31.538 33.5694 31.8838C33.9151 32.2295 34.1094 32.6985 34.1094 33.1875C34.1094 33.6765 33.9151 34.1455 33.5694 34.4912C33.2236 34.837 32.7546 35.0312 32.2656 35.0312H29.5C29.011 35.0312 28.542 34.837 28.1963 34.4912C27.8505 34.1455 27.6562 33.6765 27.6562 33.1875C27.6562 32.6985 27.8505 32.2295 28.1963 31.8838C28.542 31.538 29.011 31.3438 29.5 31.3438ZM29.5 36.875C29.989 36.875 30.458 37.0693 30.8037 37.415C31.1495 37.7608 31.3438 38.2298 31.3438 38.7188C31.3438 39.2077 31.1495 39.6767 30.8037 40.0225C30.458 40.3682 29.989 40.5625 29.5 40.5625H27.6562C27.1673 40.5625 26.6983 40.3682 26.3525 40.0225C26.0068 39.6767 25.8125 39.2077 25.8125 38.7188C25.8125 38.2298 26.0068 37.7608 26.3525 37.415C26.6983 37.0693 27.1673 36.875 27.6562 36.875H29.5ZM43.3281 38.7188C43.3281 39.2077 43.1339 39.6767 42.7881 40.0225C42.4423 40.3682 41.9734 40.5625 41.4844 40.5625H35.0312C34.5423 40.5625 34.0733 40.3682 33.7275 40.0225C33.3818 39.6767 33.1875 39.2077 33.1875 38.7188C33.1875 38.2298 33.3818 37.7608 33.7275 37.415C34.0733 37.0693 34.5423 36.875 35.0312 36.875H41.4844C41.9734 36.875 42.4423 37.0693 42.7881 37.415C43.1339 37.7608 43.3281 38.2298 43.3281 38.7188ZM35.9531 20.2812H41.4844C41.9734 20.2812 42.4423 20.4755 42.7881 20.8213C43.1339 21.167 43.3281 21.636 43.3281 22.125C43.3281 22.614 43.1339 23.083 42.7881 23.4287C42.4423 23.7745 41.9734 23.9688 41.4844 23.9688H35.9531C35.4641 23.9688 34.9952 23.7745 34.6494 23.4287C34.3036 23.083 34.1094 22.614 34.1094 22.125C34.1094 21.636 34.3036 21.167 34.6494 20.8213C34.9952 20.4755 35.4641 20.2812 35.9531 20.2812ZM33.1875 25.8125H41.4844C41.9734 25.8125 42.4423 26.0068 42.7881 26.3525C43.1339 26.6983 43.3281 27.1673 43.3281 27.6562C43.3281 28.1452 43.1339 28.6142 42.7881 28.96C42.4423 29.3057 41.9734 29.5 41.4844 29.5H33.1875C32.6985 29.5 32.2295 29.3057 31.8838 28.96C31.538 28.6142 31.3438 28.1452 31.3438 27.6562C31.3438 27.1673 31.538 26.6983 31.8838 26.3525C32.2295 26.0068 32.6985 25.8125 33.1875 25.8125ZM37.7969 12.9062C37.3079 12.9062 36.8389 12.712 36.4931 12.3662C36.1474 12.0205 35.9531 11.5515 35.9531 11.0625C35.9531 10.5735 36.1474 10.1045 36.4931 9.75877C36.8389 9.413 37.3079 9.21875 37.7969 9.21875H41.4844C41.9734 9.21875 42.4423 9.413 42.7881 9.75877C43.1339 10.1045 43.3281 10.5735 43.3281 11.0625C43.3281 11.5515 43.1339 12.0205 42.7881 12.3662C42.4423 12.712 41.9734 12.9062 41.4844 12.9062H37.7969ZM36.875 14.75H41.4844C41.9734 14.75 42.4423 14.9443 42.7881 15.29C43.1339 15.6358 43.3281 16.1048 43.3281 16.5938C43.3281 17.0827 43.1339 17.5517 42.7881 17.8975C42.4423 18.2432 41.9734 18.4375 41.4844 18.4375H36.875C36.386 18.4375 35.917 18.2432 35.5713 17.8975C35.2255 17.5517 35.0312 17.0827 35.0312 16.5938C35.0312 16.1048 35.2255 15.6358 35.5713 15.29C35.917 14.9443 36.386 14.75 36.875 14.75Z" fill="#167FFC"/>
</g>
<defs>
<clipPath id="clip0_446_186">
<rect width="59" height="59" fill="white"/>
</clipPath>
</defs>
</svg>
