<svg width="24" height="32" viewBox="0 0 24 32" fill="none" xmlns="http://www.w3.org/2000/svg">
<path d="M5.37017 2.71823H2.71823V5.43646H0V31.2265H18.6298V28.5083H21.2818V25.7901H24V0H5.37017V2.71823ZM17.3039 29.8343H1.32597V6.69613H17.3039V29.8343ZM19.9558 27.116H18.6298V5.37017H4.0442V4.0442H19.9558V27.116ZM6.69613 1.32597H22.674V24.4641H21.2818V2.71823H6.69613V1.32597Z" fill="#167FFC"/>
<path d="M3.44743 26.3204H15.4474V27.6464H3.44743V26.3204ZM3.44743 22.8729H15.4474V24.1989H3.44743V22.8729ZM3.44743 19.3591H15.4474V20.6851H3.44743V19.3591ZM3.24854 15.8453H15.4474V17.1713H3.24854V15.8453ZM3.24854 12.3978H15.4474V13.7238H3.24854V12.3978ZM3.24854 8.88397H15.4474V10.2099H3.24854V8.88397Z" fill="#167FFC"/>
</svg>
