<svg width="26" height="26" viewBox="0 0 26 26" fill="none" xmlns="http://www.w3.org/2000/svg">
<path d="M11.0703 5.58594H11.8574V6.37305C11.8577 6.60865 11.9514 6.83454 12.118 7.00114C12.2846 7.16774 12.5105 7.26145 12.7461 7.26172H13.2539C13.4895 7.26145 13.7154 7.16774 13.882 7.00114C14.0486 6.83454 14.1423 6.60865 14.1426 6.37305V5.58594H14.9297C15.1653 5.58567 15.3912 5.49195 15.5578 5.32535C15.7244 5.15875 15.8181 4.93287 15.8184 4.69727V4.18945C15.8181 3.95385 15.7244 3.72796 15.5578 3.56136C15.3912 3.39476 15.1653 3.30105 14.9297 3.30078H14.1426V2.51367C14.1423 2.27806 14.0486 2.05218 13.882 1.88558C13.7154 1.71898 13.4895 1.62527 13.2539 1.625H12.7461C12.5105 1.62527 12.2846 1.71898 12.118 1.88558C11.9514 2.05218 11.8577 2.27806 11.8574 2.51367V3.30078H11.0703C10.8347 3.30105 10.6088 3.39476 10.4422 3.56136C10.2756 3.72796 10.1819 3.95385 10.1816 4.18945V4.69727C10.1819 4.93287 10.2756 5.15875 10.4422 5.32535C10.6088 5.49195 10.8347 5.58567 11.0703 5.58594ZM10.9434 4.18945C10.9434 4.1558 10.9568 4.12353 10.9806 4.09973C11.0044 4.07593 11.0367 4.06254 11.0703 4.0625H12.2383C12.3393 4.0625 12.4362 4.02237 12.5076 3.95095C12.579 3.87952 12.6191 3.78265 12.6191 3.68164V2.51367C12.6192 2.48001 12.6326 2.44775 12.6564 2.42395C12.6802 2.40015 12.7124 2.38676 12.7461 2.38672H13.2539C13.2876 2.38676 13.3198 2.40015 13.3436 2.42395C13.3674 2.44775 13.3808 2.48001 13.3809 2.51367V3.68164C13.3809 3.78265 13.421 3.87952 13.4924 3.95095C13.5638 4.02237 13.6607 4.0625 13.7617 4.0625H14.9297C14.9633 4.06254 14.9956 4.07593 15.0194 4.09973C15.0432 4.12353 15.0566 4.1558 15.0566 4.18945V4.69727C15.0566 4.73092 15.0432 4.76319 15.0194 4.78699C14.9956 4.81079 14.9633 4.82418 14.9297 4.82422H13.7617C13.6607 4.82422 13.5638 4.86435 13.4924 4.93577C13.421 5.00719 13.3809 5.10407 13.3809 5.20508V6.37305C13.3808 6.4067 13.3674 6.43897 13.3436 6.46277C13.3198 6.48657 13.2876 6.49996 13.2539 6.5H12.7461C12.7124 6.49996 12.6802 6.48657 12.6564 6.46277C12.6326 6.43897 12.6192 6.4067 12.6191 6.37305V5.20508C12.6191 5.10407 12.579 5.00719 12.5076 4.93577C12.4362 4.86435 12.3393 4.82422 12.2383 4.82422H11.0703C11.0367 4.82418 11.0044 4.81079 10.9806 4.78699C10.9568 4.76319 10.9434 4.73092 10.9434 4.69727V4.18945ZM24.0957 7.10938H19.9062V6.72852C19.9057 6.22364 19.7049 5.7396 19.3479 5.3826C18.9909 5.0256 18.5068 4.82478 18.002 4.82422H17.3738C17.3845 4.69864 17.3901 4.57168 17.3901 4.44336C17.3901 1.99327 15.4207 0 13 0C10.5793 0 8.60986 1.99327 8.60986 4.44336C8.60986 4.57168 8.6156 4.69864 8.62616 4.82422H7.99805C7.49317 4.82478 7.00913 5.0256 6.65213 5.3826C6.29513 5.7396 6.09431 6.22364 6.09375 6.72852V7.10938H1.9043C1.39942 7.10994 0.915382 7.31075 0.558379 7.66775C0.201376 8.02476 0.000564515 8.50879 0 9.01367L0 24.0957C0.000564515 24.6006 0.201376 25.0846 0.558379 25.4416C0.915382 25.7986 1.39942 25.9994 1.9043 26H24.0957C24.6006 25.9994 25.0846 25.7986 25.4416 25.4416C25.7986 25.0846 25.9994 24.6006 26 24.0957V9.01367C25.9994 8.50879 25.7986 8.02476 25.4416 7.66775C25.0846 7.31075 24.6006 7.10994 24.0957 7.10938ZM6.09375 17.4688H3.04688V16.0977H6.09375V17.4688ZM6.09375 13.0508H3.04688V11.6797H6.09375V13.0508ZM6.09375 10.918H2.9707C2.78895 10.9182 2.61469 10.9905 2.48617 11.119C2.35765 11.2475 2.28536 11.4218 2.28516 11.6035V13.127C2.28536 13.3087 2.35765 13.483 2.48617 13.6115C2.61469 13.74 2.78895 13.8123 2.9707 13.8125H6.09375V15.3359H2.9707C2.78895 15.3361 2.61469 15.4084 2.48617 15.537C2.35765 15.6655 2.28536 15.8397 2.28516 16.0215V17.5449C2.28536 17.7267 2.35765 17.9009 2.48617 18.0295C2.61469 18.158 2.78895 18.2303 2.9707 18.2305H6.09375V25.2383H1.9043C1.60137 25.2379 1.31095 25.1175 1.09674 24.9033C0.882541 24.6891 0.762055 24.3986 0.761719 24.0957V9.01367C0.762055 8.71074 0.882541 8.42032 1.09674 8.20612C1.31095 7.99192 1.60137 7.87143 1.9043 7.87109H6.09375V10.918ZM13 0.761719C15.0007 0.761719 16.6284 2.41328 16.6284 4.44336C16.6284 6.47344 15.0007 8.125 13 8.125C10.9993 8.125 9.37158 6.47344 9.37158 4.44336C9.37158 2.41328 10.9993 0.761719 13 0.761719ZM14.7266 25.2383H11.2734V20.8965C11.2735 20.7955 11.3137 20.6987 11.3851 20.6273C11.4565 20.5559 11.5533 20.5157 11.6543 20.5156H14.3457C14.4467 20.5157 14.5435 20.5559 14.6149 20.6273C14.6863 20.6987 14.7265 20.7955 14.7266 20.8965V25.2383ZM19.1445 25.2383H15.4883V20.8965C15.4879 20.5936 15.3675 20.3031 15.1533 20.0889C14.9391 19.8747 14.6486 19.7542 14.3457 19.7539H11.6543C11.3514 19.7542 11.0609 19.8747 10.8467 20.0889C10.6325 20.3031 10.5121 20.5936 10.5117 20.8965V25.2383H6.85547V6.72852C6.8558 6.42559 6.97629 6.13516 7.19049 5.92096C7.4047 5.70676 7.69512 5.58627 7.99805 5.58594H8.75728C9.25676 7.48414 10.9695 8.88672 13 8.88672C15.0305 8.88672 16.7432 7.48414 17.2427 5.58594H18.002C18.3049 5.58627 18.5953 5.70676 18.8095 5.92096C19.0237 6.13516 19.1442 6.42559 19.1445 6.72852V25.2383ZM19.9062 11.6797H22.9531V13.0508H19.9062V11.6797ZM19.9062 16.0977H22.9531V17.4688H19.9062V16.0977ZM25.2383 24.0957C25.2379 24.3986 25.1175 24.6891 24.9033 24.9033C24.6891 25.1175 24.3986 25.2379 24.0957 25.2383H19.9062V18.2305H23.0293C23.2111 18.2303 23.3853 18.158 23.5138 18.0295C23.6424 17.9009 23.7146 17.7267 23.7148 17.5449V16.0215C23.7146 15.8397 23.6424 15.6655 23.5138 15.537C23.3853 15.4084 23.2111 15.3361 23.0293 15.3359H19.9062V13.8125H23.0293C23.2111 13.8123 23.3853 13.74 23.5138 13.6115C23.6424 13.483 23.7146 13.3087 23.7148 13.127V11.6035C23.7146 11.4218 23.6424 11.2475 23.5138 11.119C23.3853 10.9905 23.2111 10.9182 23.0293 10.918H19.9062V7.87109H24.0957C24.3986 7.87143 24.6891 7.99192 24.9033 8.20612C25.1175 8.42032 25.2379 8.71074 25.2383 9.01367V24.0957ZM16.9355 10.918H14.0664C13.8847 10.9182 13.7104 10.9905 13.5819 11.119C13.4534 11.2475 13.3811 11.4218 13.3809 11.6035V13.127C13.3811 13.3087 13.4534 13.483 13.5819 13.6115C13.7104 13.74 13.8847 13.8123 14.0664 13.8125H16.9355C17.1173 13.8123 17.2916 13.74 17.4201 13.6115C17.5486 13.483 17.6209 13.3087 17.6211 13.127V11.6035C17.6209 11.4218 17.5486 11.2475 17.4201 11.119C17.2916 10.9905 17.1173 10.9182 16.9355 10.918ZM16.8594 13.0508H14.1426V11.6797H16.8594V13.0508ZM16.9355 15.3359H14.0664C13.8847 15.3361 13.7104 15.4084 13.5819 15.537C13.4534 15.6655 13.3811 15.8397 13.3809 16.0215V17.5449C13.3811 17.7267 13.4534 17.9009 13.5819 18.0295C13.7104 18.158 13.8847 18.2303 14.0664 18.2305H16.9355C17.1173 18.2303 17.2916 18.158 17.4201 18.0295C17.5486 17.9009 17.6209 17.7267 17.6211 17.5449V16.0215C17.6209 15.8397 17.5486 15.6655 17.4201 15.537C17.2916 15.4084 17.1173 15.3361 16.9355 15.3359ZM16.8594 17.4688H14.1426V16.0977H16.8594V17.4688ZM11.9336 15.3359H9.06445C8.8827 15.3361 8.70844 15.4084 8.57992 15.537C8.4514 15.6655 8.37911 15.8397 8.37891 16.0215V17.5449C8.37911 17.7267 8.4514 17.9009 8.57992 18.0295C8.70844 18.158 8.8827 18.2303 9.06445 18.2305H11.9336C12.1153 18.2303 12.2896 18.158 12.4181 18.0295C12.5466 17.9009 12.6189 17.7267 12.6191 17.5449V16.0215C12.6189 15.8397 12.5466 15.6655 12.4181 15.537C12.2896 15.4084 12.1153 15.3361 11.9336 15.3359ZM11.8574 17.4688H9.14062V16.0977H11.8574V17.4688ZM11.9336 10.918H9.06445C8.8827 10.9182 8.70844 10.9905 8.57992 11.119C8.4514 11.2475 8.37911 11.4218 8.37891 11.6035V13.127C8.37911 13.3087 8.4514 13.483 8.57992 13.6115C8.70844 13.74 8.8827 13.8123 9.06445 13.8125H11.9336C12.1153 13.8123 12.2896 13.74 12.4181 13.6115C12.5466 13.483 12.6189 13.3087 12.6191 13.127V11.6035C12.6189 11.4218 12.5466 11.2475 12.4181 11.119C12.2896 10.9905 12.1153 10.9182 11.9336 10.918ZM11.8574 13.0508H9.14062V11.6797H11.8574V13.0508Z" fill="#167FFC"/>
</svg>
