<svg width="26" height="31" viewBox="0 0 26 31" fill="none" xmlns="http://www.w3.org/2000/svg">
<path d="M21.5434 1.16788V18.319C21.5434 19.1098 21.51 19.9073 21.5434 20.6948V20.7281C21.6001 20.5913 21.6569 20.4545 21.7136 20.3144L19.6181 22.4099L16.2746 25.7533L15.5038 26.5241C15.6406 26.4674 15.7774 26.4107 15.9176 26.3539H1.17566C1.08891 26.3573 1.17566 26.3773 1.19568 26.3606C1.18901 26.364 1.11226 26.3339 1.11226 26.3373C1.12895 26.3439 1.23572 26.3706 1.13896 26.3373C1.16899 26.3473 1.21237 26.424 1.15898 26.3506C1.09558 26.2605 1.19902 26.414 1.16231 26.3539C1.12227 26.2872 1.18901 26.4541 1.17232 26.3773C1.1523 26.2972 1.16565 26.4874 1.17232 26.404V1.16788C1.17232 1.13451 1.18567 1.05442 1.16899 1.19123C1.17566 1.14785 1.2157 1.12116 1.15564 1.20792C1.16899 1.1879 1.23906 1.10448 1.18233 1.15787C1.10559 1.22794 1.23906 1.09447 1.16899 1.17121C1.1156 1.22794 1.17232 1.1612 1.19902 1.15453C1.27576 1.14118 1.10225 1.18456 1.179 1.16454C1.25908 1.14452 1.07222 1.15787 1.15564 1.16454H21.3933C21.4433 1.16788 21.4934 1.16454 21.5434 1.16788H21.5668C21.6802 1.16454 21.4967 1.15119 21.5634 1.16788C21.6402 1.1879 21.4733 1.11782 21.5401 1.15787C21.6102 1.20124 21.4567 1.09113 21.5234 1.14118C21.5434 1.15453 21.5901 1.2246 21.5467 1.1612C21.49 1.07445 21.6035 1.21793 21.5367 1.14118C21.49 1.08112 21.5534 1.13451 21.5434 1.16788C21.5401 1.02773 21.5267 1.24796 21.5434 1.16788C21.5534 1.47152 21.8037 1.76516 22.1274 1.75181C22.4343 1.73847 22.7246 1.49488 22.7113 1.16788C22.6879 0.510529 22.1941 0.00667358 21.5301 0H1.33583C1.25241 0 1.16899 -1.0193e-07 1.08557 0.00667347C0.461589 0.0667356 0.0111226 0.580601 0.00444905 1.20124C-0.00556131 2.03544 0.00444905 2.87297 0.00444905 3.71051V25.6599C0.00444905 25.8968 -0.00222452 26.1337 0.00444905 26.3706C0.0244698 27.0246 0.528325 27.5085 1.179 27.5285C1.2791 27.5318 1.38254 27.5285 1.48265 27.5285H14.8698C15.2135 27.5285 15.5639 27.5418 15.9076 27.5285C16.1845 27.5185 16.318 27.3683 16.4915 27.1948L17.1188 26.5675L19.1876 24.4987L21.3999 22.2864C21.777 21.9093 22.1674 21.5456 22.5278 21.1586C22.768 20.9016 22.708 20.5146 22.708 20.1876V1.17121C22.708 0.864228 22.441 0.573927 22.124 0.587275C21.8137 0.597285 21.5434 0.84087 21.5434 1.16788Z" fill="#167FFC"/>
<path d="M21.7302 20.3344L19.6381 22.4265L16.298 25.7667L15.5272 26.5375C15.8608 26.6743 16.1912 26.8111 16.5249 26.9512V21.8726C16.5249 21.8459 16.5449 21.262 16.5249 21.2587C16.5315 21.2587 16.5015 21.3721 16.5215 21.3087C16.5415 21.242 16.4982 21.3521 16.4982 21.3521C16.4948 21.3454 16.5215 21.3054 16.5282 21.2987C16.5816 21.242 16.4548 21.3788 16.5115 21.3221C16.5582 21.2753 16.4715 21.3521 16.4715 21.3488C16.4715 21.3421 16.5182 21.3221 16.5249 21.3187C16.5849 21.292 16.4815 21.3387 16.4815 21.3387C16.5716 21.2987 16.4581 21.3554 16.4514 21.3354H19.7182C20.5123 21.3354 21.3065 21.3521 22.1006 21.3354H22.144C22.451 21.3354 22.7413 21.0685 22.7279 20.7515C22.7146 20.4345 22.471 20.1675 22.144 20.1675H16.962C16.625 20.1675 16.3046 20.1442 15.9876 20.2843C15.5839 20.4645 15.367 20.8849 15.3536 21.3121C15.3503 21.3921 15.3536 21.4689 15.3536 21.549V24.442C15.3536 25.2628 15.3303 26.087 15.3536 26.9078V26.9512C15.3536 27.4584 15.991 27.722 16.3513 27.365L18.4435 25.2728L21.7836 21.9327L22.5544 21.1619C22.7713 20.945 22.788 20.5479 22.5544 20.3377C22.3209 20.1208 21.9605 20.1041 21.7302 20.3344Z" fill="#167FFC"/>
<path d="M24.8233 4.42127V29.634C24.8233 29.6641 24.8033 29.7041 24.8233 29.6474C24.8634 29.5439 24.7933 29.7275 24.8267 29.624C24.85 29.5573 24.83 29.6174 24.82 29.6307C24.8067 29.6474 24.7666 29.6841 24.8167 29.6407C24.8934 29.5706 24.7599 29.7008 24.83 29.6274C24.8834 29.5706 24.8267 29.6374 24.8 29.644C24.7399 29.6541 24.8367 29.6307 24.84 29.6274C24.7299 29.6474 24.9368 29.6374 24.82 29.634H5.53671C5.17634 29.634 4.81931 29.6374 4.45893 29.634H4.42223C4.41555 29.634 4.41222 29.6307 4.39887 29.634C4.33213 29.6407 4.43891 29.6407 4.44559 29.6407C4.37885 29.634 4.42556 29.634 4.46561 29.6541C4.37885 29.6107 4.46227 29.6574 4.47895 29.6741C4.46561 29.6607 4.44225 29.6474 4.43224 29.6307C4.40221 29.574 4.45893 29.6641 4.45893 29.6674C4.44892 29.644 4.40888 29.614 4.44892 29.6607C4.49897 29.7175 4.43224 29.6641 4.44225 29.6307C4.4556 29.564 4.42223 29.6808 4.44559 29.6774C4.44559 29.6774 4.44225 29.634 4.44559 29.6307V26.9412L3.86165 27.5252H15.6939C15.764 27.5252 15.8374 27.5285 15.9074 27.5252C16.1711 27.5152 16.3079 27.365 16.4747 27.2015L17.6926 25.9836L21.3731 22.3031L22.4542 21.222C22.5944 21.0819 22.6945 20.9317 22.7012 20.7181C22.7045 20.6414 22.7012 20.5646 22.7012 20.4879V3.86403L22.1172 4.44796H24.81C24.9168 4.44463 24.7099 4.42127 24.85 4.45797C24.9134 4.47466 24.8133 4.44463 24.81 4.44129C24.8734 4.47466 24.8233 4.4513 24.7967 4.42127C24.81 4.43795 24.83 4.44796 24.84 4.46465C24.8834 4.52805 24.7766 4.34452 24.8334 4.46465C24.83 4.46131 24.8 4.36121 24.8133 4.42461C24.84 4.50469 24.8167 4.27779 24.8233 4.42127C24.8367 4.72492 25.0836 5.01855 25.4073 5.00521C25.7143 4.99186 26.0046 4.74827 25.9912 4.42127C25.9645 3.77393 25.464 3.29677 24.82 3.27675C24.6765 3.27341 24.533 3.27675 24.3896 3.27675H22.1306C21.8136 3.27675 21.5466 3.54369 21.5466 3.86069V18.6627C21.5466 19.34 21.5133 20.0274 21.5466 20.7015V20.7281C21.6033 20.5913 21.6601 20.4545 21.7168 20.3144L19.6213 22.4099L16.2778 25.7534L15.507 26.5242C15.6438 26.4674 15.7807 26.4107 15.9208 26.354H5.35986C4.87269 26.354 4.38219 26.3373 3.89168 26.354H3.87166C3.55466 26.354 3.28772 26.6209 3.28772 26.9379V29.5473C3.28772 30.2246 3.74486 30.7852 4.44559 30.8019C4.54903 30.8052 4.65247 30.8019 4.75591 30.8019H24.7433C25.2805 30.8019 25.7343 30.5116 25.9278 30.0044C26.0346 29.7208 25.9912 29.3471 25.9912 29.0501V4.42461C25.9912 4.11762 25.7243 3.82732 25.4073 3.84067C25.0903 3.85068 24.8233 4.09426 24.8233 4.42127Z" fill="#167FFC"/>
<path d="M8.22623 19.2766H11.8166C12.1102 19.2766 12.4005 19.2633 12.6942 19.2032C13.2815 19.0831 13.8454 18.7561 14.2558 18.319C15.1534 17.3613 15.3403 15.9165 14.7163 14.7586C14.169 13.7409 13.0846 13.1736 11.9467 13.1736H10.899C10.7689 13.1736 10.6387 13.177 10.5086 13.167C10.4786 13.1636 10.4485 13.1603 10.4152 13.1569C10.4352 13.1569 10.542 13.1803 10.4352 13.1603C10.3684 13.1469 10.3017 13.1336 10.235 13.1169C10.1716 13.1002 10.1048 13.0802 10.0414 13.0602C10.0147 13.0502 9.98471 13.0402 9.95802 13.0302C9.82121 12.9801 10.0648 13.0869 9.93466 13.0201C9.81787 12.9601 9.70109 12.9 9.59097 12.8233L9.5209 12.7732C9.62434 12.84 9.56094 12.8033 9.53425 12.7832C9.47418 12.7298 9.41412 12.6798 9.3574 12.6231C9.31068 12.5763 9.2673 12.5296 9.22392 12.4796C9.2039 12.4562 9.18722 12.4362 9.1672 12.4128C9.24728 12.5096 9.19723 12.4496 9.18055 12.4262C9.10046 12.3027 9.02706 12.1793 8.96032 12.0491C8.94697 12.0224 8.92028 11.9457 8.96699 12.0658C8.95698 12.0391 8.94363 12.0124 8.93362 11.9824C8.91027 11.919 8.89025 11.8556 8.87356 11.7922C8.85688 11.7255 8.8402 11.6621 8.82685 11.5953C8.82017 11.5653 8.81684 11.5353 8.81016 11.5052C8.83352 11.6521 8.8135 11.5119 8.81016 11.4785C8.80015 11.3384 8.80349 11.1983 8.8135 11.0581C8.82017 10.948 8.8135 11.0581 8.81016 11.0781C8.81684 11.0481 8.82017 11.0181 8.82685 10.988C8.84353 10.908 8.86021 10.8279 8.88357 10.7478C8.90359 10.6844 8.92695 10.621 8.94697 10.5576C8.95698 10.5276 8.99702 10.4642 8.9403 10.5743C8.95365 10.5476 8.96366 10.5209 8.977 10.4942C9.04374 10.3641 9.12049 10.2406 9.2039 10.1205C9.1305 10.2239 9.21725 10.1071 9.25062 10.0704C9.29733 10.017 9.35072 9.96364 9.40077 9.91359C9.44415 9.87355 9.48753 9.83685 9.53091 9.79681C9.61099 9.73007 9.53091 9.79681 9.51756 9.80682C9.55427 9.78346 9.58763 9.75676 9.62434 9.73341C9.73445 9.66 9.85124 9.60327 9.97137 9.54321C9.84123 9.60995 10.0214 9.52653 10.0581 9.51318C10.1282 9.48982 10.2016 9.4698 10.275 9.45312C10.3417 9.43643 10.4085 9.42642 10.4752 9.41308C10.3251 9.43977 10.5319 9.40974 10.572 9.40974C10.6187 9.4064 10.6621 9.4064 10.7088 9.4064C11.9334 9.39973 13.158 9.4064 14.3826 9.4064H14.4994C14.8064 9.4064 15.0967 9.13946 15.0833 8.82246C15.07 8.50547 14.8264 8.23853 14.4994 8.23853H10.909C10.6154 8.23853 10.3251 8.25187 10.0314 8.31194C9.44415 8.43206 8.88024 8.75906 8.46981 9.19618C7.57222 10.1538 7.38536 11.5987 8.00934 12.7565C8.55657 13.7743 9.64102 14.3415 10.7789 14.3415H11.8266C11.9568 14.3415 12.0869 14.3382 12.217 14.3482C12.2471 14.3515 12.2771 14.3549 12.3105 14.3582C12.2904 14.3582 12.1837 14.3348 12.2904 14.3549C12.3572 14.3682 12.4239 14.3816 12.4906 14.3982C12.554 14.4149 12.6208 14.4349 12.6842 14.455C12.7109 14.465 12.7409 14.475 12.7676 14.485C12.9044 14.535 12.6608 14.4283 12.791 14.495C12.9077 14.5551 13.0245 14.6151 13.1346 14.6919L13.2047 14.7419C13.1013 14.6752 13.1647 14.7119 13.1914 14.7319C13.2514 14.7853 13.3115 14.8354 13.3682 14.8921C13.4149 14.9388 13.4583 14.9855 13.5017 15.0356C13.5217 15.0589 13.5384 15.0789 13.5584 15.1023C13.4783 15.0055 13.5284 15.0656 13.5451 15.089C13.6251 15.2124 13.6986 15.3359 13.7653 15.466C13.7786 15.4927 13.8053 15.5694 13.7586 15.4493C13.7686 15.476 13.782 15.5027 13.792 15.5327C13.8153 15.5961 13.8354 15.6595 13.852 15.7229C13.8687 15.7897 13.8854 15.8531 13.8988 15.9198C13.9054 15.9498 13.9088 15.9799 13.9154 16.0099C13.8921 15.8631 13.9121 16.0032 13.9154 16.0366C13.9255 16.1767 13.9221 16.3169 13.9121 16.457C13.9054 16.5671 13.9121 16.457 13.9154 16.437C13.9088 16.467 13.9054 16.4971 13.8988 16.5271C13.8821 16.6072 13.8654 16.6873 13.842 16.7674C13.822 16.8308 13.7987 16.8942 13.7786 16.9576C13.7686 16.9876 13.7286 17.051 13.7853 16.9409C13.772 16.9676 13.762 16.9943 13.7486 17.021C13.6819 17.1511 13.6051 17.2745 13.5217 17.3947C13.5951 17.2912 13.5084 17.408 13.475 17.4447C13.4283 17.4981 13.3749 17.5515 13.3248 17.6016C13.2815 17.6416 13.2381 17.6783 13.1947 17.7183C13.1146 17.7851 13.1947 17.7183 13.208 17.7083C13.1713 17.7317 13.138 17.7584 13.1013 17.7817C12.9912 17.8551 12.8744 17.9119 12.7542 17.9719C12.8844 17.9052 12.7042 17.9886 12.6675 18.002C12.5974 18.0253 12.524 18.0453 12.4506 18.062C12.3839 18.0787 12.3171 18.0887 12.2504 18.1021C12.4005 18.0754 12.1937 18.1054 12.1536 18.1054C12.1069 18.1087 12.0635 18.1087 12.0168 18.1087C10.7922 18.1154 9.56762 18.1087 8.34301 18.1087H8.22623C7.91924 18.1087 7.62894 18.3757 7.64229 18.6927C7.65564 19.0097 7.89588 19.2766 8.22623 19.2766Z" fill="#167FFC"/>
<path d="M11.9668 8.82578V6.35989C11.9668 6.05291 11.6999 5.76261 11.3829 5.77596C11.0659 5.7893 10.799 6.03289 10.799 6.35989V8.82578C10.799 9.13276 11.0659 9.42306 11.3829 9.40972C11.6999 9.39637 11.9668 9.15279 11.9668 8.82578ZM11.9668 21.1619V18.696C11.9668 18.389 11.6999 18.0987 11.3829 18.1121C11.0659 18.1254 10.799 18.369 10.799 18.696V21.1619C10.799 21.4689 11.0659 21.7592 11.3829 21.7458C11.6999 21.7291 11.9668 21.4889 11.9668 21.1619Z" fill="#167FFC"/>
</svg>
