<svg width="134" height="134" viewBox="0 0 134 134" fill="none" xmlns="http://www.w3.org/2000/svg">
<path d="M53.795 108.182H75.7577C76.3221 108.182 76.8634 107.958 77.2625 107.559C77.6616 107.16 77.8858 106.618 77.8858 106.054C77.8858 105.489 77.6616 104.948 77.2625 104.549C76.8634 104.15 76.3221 103.926 75.7577 103.926H53.795C53.2306 103.926 52.6893 104.15 52.2902 104.549C51.8911 104.948 51.6669 105.489 51.6669 106.054C51.6669 106.618 51.8911 107.16 52.2902 107.559C52.6893 107.958 53.2306 108.182 53.795 108.182ZM53.795 115.552H75.7577C76.3221 115.552 76.8634 115.328 77.2625 114.928C77.6616 114.529 77.8858 113.988 77.8858 113.424C77.8858 112.859 77.6616 112.318 77.2625 111.919C76.8634 111.52 76.3221 111.295 75.7577 111.295H53.795C53.2306 111.295 52.6893 111.52 52.2902 111.919C51.8911 112.318 51.6669 112.859 51.6669 113.424C51.6669 113.988 51.8911 114.529 52.2902 114.928C52.6893 115.328 53.2306 115.552 53.795 115.552ZM64.7764 23.8748C65.3408 23.8748 65.8821 23.6506 66.2812 23.2515C66.6803 22.8524 66.9045 22.3111 66.9045 21.7466V15.5282C66.9045 14.9637 66.6803 14.4224 66.2812 14.0233C65.8821 13.6242 65.3408 13.4 64.7764 13.4C64.2119 13.4 63.6706 13.6242 63.2715 14.0233C62.8724 14.4224 62.6482 14.9637 62.6482 15.5282V21.7466C62.6482 22.3111 62.8724 22.8524 63.2715 23.2515C63.6706 23.6506 64.2119 23.8748 64.7764 23.8748ZM109.776 58.4C109.776 57.8356 109.552 57.2943 109.153 56.8952C108.754 56.496 108.213 56.2718 107.648 56.2718H101.43C100.865 56.2718 100.324 56.496 99.9249 56.8952C99.5258 57.2943 99.3016 57.8356 99.3016 58.4C99.3016 58.9644 99.5258 59.5057 99.9249 59.9048C100.324 60.3039 100.865 60.5282 101.43 60.5282H107.648C108.213 60.5282 108.754 60.3039 109.153 59.9048C109.552 59.5057 109.776 58.9644 109.776 58.4ZM19.7764 58.4C19.7764 58.9644 20.0006 59.5057 20.3997 59.9048C20.7988 60.3039 21.3401 60.5282 21.9045 60.5282H28.123C28.6874 60.5282 29.2288 60.3039 29.6279 59.9048C30.027 59.5057 30.2512 58.9644 30.2512 58.4C30.2512 57.8356 30.027 57.2943 29.6279 56.8952C29.2288 56.496 28.6874 56.2718 28.123 56.2718H21.9045C21.3401 56.2718 20.7988 56.496 20.3997 56.8952C20.0006 57.2943 19.7764 57.8356 19.7764 58.4ZM93.5874 26.5797L89.1907 30.9765C88.9874 31.1728 88.8253 31.4076 88.7137 31.6673C88.6022 31.9269 88.5435 32.2062 88.541 32.4888C88.5386 32.7713 88.5924 33.0516 88.6994 33.3131C88.8064 33.5747 88.9645 33.8123 89.1643 34.0121C89.3641 34.2119 89.6017 34.3699 89.8633 34.4769C90.1248 34.5839 90.405 34.6378 90.6876 34.6353C90.9702 34.6329 91.2494 34.5742 91.5091 34.4626C91.7687 34.3511 92.0036 34.189 92.1999 33.9857L96.5967 29.5889C96.7999 29.3926 96.962 29.1578 97.0736 28.8981C97.1851 28.6385 97.2438 28.3592 97.2463 28.0767C97.2487 27.7941 97.1949 27.5138 97.0879 27.2523C96.9809 26.9908 96.8228 26.7531 96.623 26.5533C96.4232 26.3535 96.1856 26.1955 95.9241 26.0885C95.6625 25.9815 95.3823 25.9276 95.0997 25.9301C94.8171 25.9325 94.5379 25.9912 94.2782 26.1028C94.0186 26.2143 93.7837 26.3764 93.5874 26.5797ZM32.9561 90.2203C33.1533 90.4186 33.3877 90.576 33.6459 90.6834C33.9041 90.7907 34.181 90.846 34.4607 90.846C34.7403 90.846 35.0172 90.7907 35.2755 90.6834C35.5337 90.576 35.7681 90.4186 35.9653 90.2203L40.3621 85.8235C40.5653 85.6272 40.7275 85.3923 40.839 85.1327C40.9505 84.8731 41.0093 84.5938 41.0117 84.3112C41.0142 84.0286 40.9603 83.7484 40.8533 83.4869C40.7463 83.2253 40.5883 82.9877 40.3885 82.7879C40.1886 82.5881 39.951 82.4301 39.6895 82.323C39.4279 82.216 39.1477 82.1622 38.8651 82.1646C38.5826 82.1671 38.3033 82.2258 38.0437 82.3373C37.784 82.4489 37.5492 82.611 37.3529 82.8143L32.9561 87.2111C32.5571 87.6101 32.333 88.1514 32.333 88.7157C32.333 89.28 32.5571 89.8212 32.9561 90.2203ZM89.1907 82.8143C88.7917 83.2134 88.5676 83.7546 88.5676 84.3189C88.5676 84.8832 88.7917 85.4244 89.1907 85.8235L93.5874 90.2203C93.7846 90.4186 94.0191 90.576 94.2773 90.6834C94.5355 90.7907 94.8124 90.846 95.092 90.846C95.3717 90.846 95.6486 90.7907 95.9068 90.6834C96.165 90.576 96.3995 90.4186 96.5967 90.2203C96.9956 89.8212 97.2197 89.28 97.2197 88.7157C97.2197 88.1514 96.9956 87.6101 96.5967 87.2111L92.1999 82.8143C91.8008 82.4153 91.2596 82.1912 90.6953 82.1912C90.131 82.1912 89.5897 82.4153 89.1907 82.8143ZM35.9653 26.5797C35.769 26.3764 35.5342 26.2143 35.2745 26.1028C35.0149 25.9912 34.7356 25.9325 34.453 25.9301C34.1705 25.9276 33.8902 25.9815 33.6287 26.0885C33.3671 26.1955 33.1295 26.3535 32.9297 26.5533C32.7299 26.7531 32.5719 26.9908 32.4649 27.2523C32.3578 27.5138 32.304 27.7941 32.3065 28.0767C32.3089 28.3592 32.3676 28.6385 32.4792 28.8981C32.5907 29.1578 32.7528 29.3926 32.9561 29.5889L37.3529 33.9857C37.55 34.184 37.7845 34.3414 38.0427 34.4488C38.3009 34.5562 38.5778 34.6115 38.8575 34.6115C39.1371 34.6115 39.414 34.5562 39.6722 34.4488C39.9305 34.3414 40.1649 34.184 40.3621 33.9857C40.7611 33.5866 40.9852 33.0454 40.9852 32.4811C40.9852 31.9168 40.7611 31.3756 40.3621 30.9765L35.9653 26.5797ZM50.7518 26.6648C51.1017 26.6646 51.4461 26.578 51.7546 26.4129C52.0631 26.2477 52.3261 26.0091 52.5203 25.718C52.7146 25.427 52.834 25.0926 52.8682 24.7443C52.9023 24.3961 52.8501 24.0448 52.7161 23.7216L50.3368 17.9755C50.1203 17.454 49.7056 17.0398 49.1837 16.8241C48.6619 16.6084 48.0757 16.6088 47.5542 16.8253C47.0327 17.0417 46.6185 17.4565 46.4028 17.9783C46.1871 18.5002 46.1875 19.0863 46.4039 19.6078L48.7832 25.3518C49.1237 26.169 49.9154 26.6648 50.7518 26.6648ZM103.571 40.0297L97.8246 42.4068C97.5664 42.5139 97.3317 42.6707 97.1341 42.8685C96.9365 43.0662 96.7798 43.3009 96.6729 43.5592C96.566 43.8174 96.511 44.0943 96.511 44.3738C96.5111 44.6533 96.5662 44.9301 96.6733 45.1884C96.7803 45.4466 96.9372 45.6812 97.1349 45.8788C97.3326 46.0764 97.5673 46.2332 97.8256 46.3401C98.0839 46.447 98.3607 46.502 98.6402 46.5019C98.9198 46.5019 99.1965 46.4467 99.4548 46.3397L105.201 43.9604C105.722 43.7442 106.137 43.3297 106.353 42.8081C106.568 42.2865 106.568 41.7004 106.352 41.1789C106.136 40.6574 105.721 40.2431 105.2 40.0272C104.678 39.8112 104.092 39.8114 103.571 40.0276V40.0297ZM30.098 70.4582L24.3519 72.8374C24.0937 72.9445 23.8591 73.1013 23.6614 73.2991C23.4638 73.4968 23.3071 73.7315 23.2002 73.9898C23.0933 74.248 23.0383 74.5249 23.0383 74.8044C23.0384 75.0839 23.0935 75.3607 23.2006 75.619C23.4168 76.1405 23.8313 76.5548 24.3529 76.7707C24.6112 76.8776 24.888 76.9326 25.1675 76.9325C25.4471 76.9325 25.7239 76.8773 25.9821 76.7703L31.7281 74.391C31.9864 74.284 32.221 74.1271 32.4186 73.9294C32.6162 73.7317 32.773 73.497 32.8799 73.2387C32.9868 72.9804 33.0418 72.7036 33.0417 72.4241C33.0416 72.1445 32.9865 71.8677 32.8795 71.6095C32.7724 71.3513 32.6156 71.1166 32.4179 70.919C32.2201 70.7214 31.9854 70.5647 31.7272 70.4578C31.4689 70.3508 31.1921 70.2959 30.9125 70.2959C30.633 70.296 30.3562 70.3511 30.098 70.4582ZM78.801 26.6648C79.6373 26.6648 80.429 26.169 80.7695 25.3518L83.1488 19.6057C83.2557 19.3475 83.3107 19.0707 83.3106 18.7912C83.3106 18.5117 83.2555 18.235 83.1484 17.9768C83.0414 17.7186 82.8846 17.4841 82.687 17.2865C82.4893 17.0889 82.2546 16.9322 81.9964 16.8253C81.7382 16.7184 81.4614 16.6634 81.1819 16.6634C80.9024 16.6635 80.6257 16.7186 80.3675 16.8256C80.1093 16.9326 79.8747 17.0894 79.6772 17.2871C79.4796 17.4848 79.3228 17.7194 79.216 17.9777L76.8367 23.7237C76.7031 24.0468 76.6512 24.3979 76.6856 24.7458C76.7199 25.0938 76.8395 25.4279 77.0337 25.7186C77.2279 26.0094 77.4907 26.2478 77.7989 26.4129C78.1072 26.5779 78.4513 26.6644 78.801 26.6648ZM97.8267 74.3931L103.571 76.7724C103.829 76.8793 104.106 76.9343 104.385 76.9342C104.665 76.9342 104.941 76.8791 105.2 76.7721C105.458 76.6651 105.692 76.5082 105.89 76.3106C106.087 76.1129 106.244 75.8783 106.351 75.62C106.458 75.3618 106.513 75.085 106.513 74.8055C106.513 74.5261 106.458 74.2493 106.351 73.9911C106.244 73.7329 106.087 73.4984 105.889 73.3008C105.692 73.1032 105.457 72.9465 105.199 72.8396L99.4526 70.4603C99.1944 70.3534 98.9177 70.2984 98.6382 70.2985C98.3587 70.2985 98.0819 70.3536 97.8238 70.4606C97.5656 70.5676 97.331 70.7245 97.1334 70.9221C96.9358 71.1198 96.7791 71.3545 96.6722 71.6127C96.5653 71.8709 96.5103 72.1477 96.5104 72.4272C96.5104 72.7067 96.5655 72.9834 96.6726 73.2416C96.7796 73.4998 96.9364 73.7344 97.1341 73.9319C97.3317 74.1295 97.5685 74.2862 97.8267 74.3931ZM25.98 40.0276C25.7217 39.9207 25.445 39.8657 25.1655 39.8657C24.886 39.8658 24.6093 39.9209 24.3511 40.0279C24.0929 40.1349 23.8583 40.2917 23.6607 40.4894C23.4631 40.6871 23.3064 40.9217 23.1995 41.18C23.0926 41.4382 23.0376 41.715 23.0377 41.9944C23.0378 42.2739 23.0929 42.5507 23.1999 42.8089C23.3069 43.067 23.4637 43.3016 23.6614 43.4992C23.859 43.6968 24.0937 43.8535 24.3519 43.9604L30.098 46.3397C30.3562 46.4466 30.633 46.5016 30.9124 46.5015C31.1919 46.5015 31.4687 46.4464 31.7268 46.3393C31.985 46.2323 32.2196 46.0755 32.4172 45.8778C32.6148 45.6802 32.7715 45.4455 32.8784 45.1873C32.9853 44.9291 33.0403 44.6523 33.0402 44.3728C33.0402 44.0933 32.9851 43.8166 32.8781 43.5584C32.771 43.3002 32.6142 43.0656 32.4166 42.868C32.2189 42.6705 31.9842 42.5137 31.726 42.4068L25.98 40.0276ZM34.1989 57.4189C34.0575 61.7715 34.8469 66.1042 36.5142 70.1273C38.1815 74.1504 40.6883 77.7712 43.8672 80.7478C46.3257 83.0418 48.2872 85.816 49.6302 88.8987C50.9816 92.0165 51.6648 95.3087 51.6648 98.684C51.6648 99.2484 51.889 99.7897 52.2881 100.189C52.6872 100.588 53.2285 100.812 53.7929 100.812H75.7556C76.32 100.812 76.8613 100.588 77.2604 100.189C77.6595 99.7897 77.8837 99.2484 77.8837 98.684C77.8837 91.9228 80.7355 85.3702 85.7047 80.7074C88.7504 77.8451 91.1788 74.3903 92.8407 70.5553C94.5026 66.7203 95.3628 62.586 95.3687 58.4064C95.3687 49.9576 91.9977 42.0898 85.8771 36.2586C82.8828 33.3831 79.3299 31.1533 75.4385 29.7073C71.5471 28.2613 67.4001 27.6299 63.2547 27.8523C47.4595 28.6078 34.699 41.596 34.1989 57.4189ZM59.556 62.5882L63.6016 65.2676C63.9499 65.4985 64.3585 65.6216 64.7764 65.6216C65.1942 65.6216 65.6028 65.4985 65.9511 65.2676L69.9967 62.5861L67.2684 96.5558H62.2864L59.556 62.5882ZM63.459 32.1044C70.7522 31.7533 77.673 34.322 82.9424 39.3402C85.5351 41.7914 87.5979 44.7481 89.0031 48.0278C90.4083 51.3075 91.1262 54.8405 91.1124 58.4085C91.1069 62.0061 90.366 65.5645 88.935 68.8652C87.5041 72.166 85.4133 75.1392 82.7913 77.6024C77.5072 82.5673 74.2679 89.3268 73.7083 96.5558H71.5375L74.5893 58.5702C74.6211 58.1727 74.5405 57.7742 74.3567 57.4202C74.1729 57.0662 73.8934 56.771 73.5499 56.5683C73.2065 56.3655 72.813 56.2633 72.4143 56.2733C72.0156 56.2834 71.6277 56.4053 71.2949 56.6251L64.7764 60.9389L58.2578 56.6251C57.9252 56.4044 57.5372 56.2818 57.1381 56.2713C56.7391 56.2609 56.3451 56.3629 56.0014 56.5659C55.6577 56.7689 55.378 57.0645 55.1944 57.4189C55.0109 57.7734 54.9308 58.1724 54.9634 58.5702L58.0152 96.5558H55.8445C55.3094 89.3323 52.0697 82.5763 46.7721 77.6365C44.0361 75.0737 41.8786 71.9564 40.444 68.493C39.0094 65.0296 38.3306 61.2998 38.4531 57.553C38.883 43.9327 49.8665 32.7556 63.459 32.1044Z" fill="#167FFC"/>
</svg>
