<svg width="48" height="48" viewBox="0 0 48 48" fill="none" xmlns="http://www.w3.org/2000/svg">
<path d="M40.5 39H7.5C6.30653 39 5.16193 38.5259 4.31802 37.682C3.47411 36.8381 3 35.6935 3 34.5V13.5C3 12.3065 3.47411 11.1619 4.31802 10.318C5.16193 9.47411 6.30653 9 7.5 9H40.5C41.6935 9 42.8381 9.47411 43.682 10.318C44.5259 11.1619 45 12.3065 45 13.5V34.5C45 35.6935 44.5259 36.8381 43.682 37.682C42.8381 38.5259 41.6935 39 40.5 39ZM7.5 12C7.10218 12 6.72064 12.158 6.43934 12.4393C6.15804 12.7206 6 13.1022 6 13.5V34.5C6 34.8978 6.15804 35.2794 6.43934 35.5607C6.72064 35.842 7.10218 36 7.5 36H40.5C40.8978 36 41.2794 35.842 41.5607 35.5607C41.842 35.2794 42 34.8978 42 34.5V13.5C42 13.1022 41.842 12.7206 41.5607 12.4393C41.2794 12.158 40.8978 12 40.5 12H7.5Z" fill="white"/>
<path d="M23.9998 25.5C23.7057 25.4977 23.4188 25.409 23.1748 25.245L5.17477 13.245C4.88371 13.0106 4.69066 12.6759 4.63342 12.3066C4.57619 11.9372 4.65889 11.5598 4.86534 11.2483C5.07179 10.9367 5.38711 10.7135 5.74954 10.6222C6.11198 10.531 6.49542 10.5783 6.82477 10.755L24.8248 22.755C25.0908 22.9337 25.2925 23.193 25.4005 23.4947C25.5085 23.7965 25.517 24.1249 25.4247 24.4318C25.3325 24.7387 25.1444 25.008 24.8879 25.2003C24.6315 25.3925 24.3202 25.4975 23.9998 25.5Z" fill="white"/>
<path d="M23.9999 25.5C23.6782 25.5007 23.3647 25.3979 23.1059 25.2069C22.847 25.0158 22.6564 24.7466 22.5622 24.4389C22.4681 24.1312 22.4754 23.8014 22.583 23.4982C22.6906 23.195 22.8929 22.9344 23.1599 22.755L41.1599 10.755C41.49 10.5598 41.8823 10.4985 42.2561 10.5836C42.63 10.6687 42.9571 10.8937 43.1702 11.2124C43.3833 11.5312 43.4663 11.9194 43.4021 12.2974C43.3379 12.6754 43.1314 13.0145 42.8249 13.245L24.8249 25.245C24.5809 25.409 24.294 25.4977 23.9999 25.5Z" fill="white"/>
</svg>
