<svg width="108" height="108" viewBox="0 0 108 108" fill="none" xmlns="http://www.w3.org/2000/svg">
<path d="M99 13.5H94.5V9C94.5 6.51285 92.4849 4.5 90 4.5C87.5151 4.5 85.5 6.51285 85.5 9V15.8287C83.0079 17.689 80.6036 19.6362 78.2681 21.6531C71.4951 16.5587 63.108 13.5 54 13.5C31.6692 13.5 13.5 31.667 13.5 54C13.5 76.3331 31.6692 94.5 54 94.5C76.3308 94.5 94.5 76.3331 94.5 54C94.5 44.8915 91.4414 36.5045 86.3469 29.732C88.3638 27.3965 90.311 24.9921 92.1712 22.5H99C101.485 22.5 103.5 20.4872 103.5 18C103.5 15.5128 101.485 13.5 99 13.5ZM85.5 54C85.5 71.3673 71.3695 85.5 54 85.5C36.6304 85.5 22.5 71.3673 22.5 54C22.5 36.6327 36.6304 22.5 54 22.5C60.4607 22.5 66.4691 24.4606 71.4731 27.8104C70.164 29.0556 68.8621 30.3079 67.5751 31.5751C66.6477 32.5062 65.7387 33.4553 64.8239 34.3985C61.5978 32.6088 57.9434 31.5 54 31.5C41.5944 31.5 31.5 41.5944 31.5 54C31.5 66.4056 41.5944 76.5 54 76.5C66.4056 76.5 76.5 66.4056 76.5 54C76.5 50.0566 75.3912 46.4022 73.6011 43.1761C74.5448 42.2613 75.4938 41.3523 76.4244 40.4249C77.6916 39.1379 78.9439 37.836 80.1891 36.5265C83.5393 41.5309 85.5 47.5398 85.5 54ZM67.5 54C67.5 61.4444 61.4444 67.5 54 67.5C46.5556 67.5 40.5 61.4444 40.5 54C40.5 46.5556 46.5556 40.5 54 40.5C55.5561 40.5 57.028 40.8177 58.4203 41.3042C55.7541 44.3435 53.194 47.4889 50.8181 50.8181C49.7219 52.3593 49.6575 54.4928 50.8181 56.1186C52.2819 58.1693 55.1308 58.6454 57.1819 57.1819C60.5111 54.806 63.6565 52.2459 66.6958 49.5797C67.1823 50.972 67.5 52.4439 67.5 54Z" fill="#167FFC"/>
</svg>
