<svg width="34" height="42" viewBox="0 0 34 42" fill="none" xmlns="http://www.w3.org/2000/svg">
<g clip-path="url(#clip0_255_1183)">
<path d="M13.5 42H20.5H33C33.55 42 34 41.55 34 41V1C34 0.45 33.55 0 33 0H1C0.45 0 0 0.45 0 1V41C0 41.55 0.45 42 1 42H13.5ZM19.5 40H14.5V33H19.5V40ZM2 2H32V40H21.5V32C21.5 31.45 21.05 31 20.5 31H13.5C12.95 31 12.5 31.45 12.5 32V40H2V2Z" fill="white"/>
<path d="M10 5H6C5.45 5 5 5.45 5 6V10C5 10.55 5.45 11 6 11H10C10.55 11 11 10.55 11 10V6C11 5.45 10.55 5 10 5ZM9 9H7V7H9V9ZM15 11H19C19.55 11 20 10.55 20 10V6C20 5.45 19.55 5 19 5H15C14.45 5 14 5.45 14 6V10C14 10.55 14.45 11 15 11ZM16 7H18V9H16V7ZM24 11H28C28.55 11 29 10.55 29 10V6C29 5.45 28.55 5 28 5H24C23.45 5 23 5.45 23 6V10C23 10.55 23.45 11 24 11ZM25 7H27V9H25V7ZM10 13H6C5.45 13 5 13.45 5 14V18C5 18.55 5.45 19 6 19H10C10.55 19 11 18.55 11 18V14C11 13.45 10.55 13 10 13ZM9 17H7V15H9V17ZM15 19H19C19.55 19 20 18.55 20 18V14C20 13.45 19.55 13 19 13H15C14.45 13 14 13.45 14 14V18C14 18.55 14.45 19 15 19ZM16 15H18V17H16V15ZM24 19H28C28.55 19 29 18.55 29 18V14C29 13.45 28.55 13 28 13H24C23.45 13 23 13.45 23 14V18C23 18.55 23.45 19 24 19ZM25 15H27V17H25V15ZM10 21H6C5.45 21 5 21.45 5 22V26C5 26.55 5.45 27 6 27H10C10.55 27 11 26.55 11 26V22C11 21.45 10.55 21 10 21ZM9 25H7V23H9V25ZM15 27H19C19.55 27 20 26.55 20 26V22C20 21.45 19.55 21 19 21H15C14.45 21 14 21.45 14 22V26C14 26.55 14.45 27 15 27ZM16 23H18V25H16V23ZM24 27H28C28.55 27 29 26.55 29 26V22C29 21.45 28.55 21 28 21H24C23.45 21 23 21.45 23 22V26C23 26.55 23.45 27 24 27ZM25 23H27V25H25V23Z" fill="white"/>
</g>
<defs>
<clipPath id="clip0_255_1183">
<rect width="34" height="42" fill="white"/>
</clipPath>
</defs>
</svg>
