<svg width="26" height="26" viewBox="0 0 26 26" fill="none" xmlns="http://www.w3.org/2000/svg">
<path fill-rule="evenodd" clip-rule="evenodd" d="M0.514858 0.000709254C0.371312 0.00793661 0.236495 0.0722893 0.140068 0.17961C0.0436398 0.286931 -0.00650055 0.428429 0.000676794 0.572976C0.00785413 0.717523 0.0717612 0.853279 0.178339 0.950378C0.284917 1.04748 0.425436 1.09797 0.568983 1.09074H3.36721L6.53241 18.0887C6.55611 18.2134 6.62228 18.3258 6.71951 18.4066C6.81674 18.4874 6.93893 18.5315 7.06499 18.5312H23.3867C23.3918 18.532 23.3968 18.5328 23.4019 18.5334C23.42 18.5336 23.438 18.5329 23.456 18.5312H23.6325C24.3859 18.5312 24.9174 19.0436 24.9174 19.6213C24.9174 20.199 24.3859 20.7113 23.6314 20.7113H6.95458C6.81103 20.7113 6.67336 20.7687 6.57186 20.8709C6.47036 20.9731 6.41334 21.1118 6.41334 21.2563C6.41334 21.4009 6.47036 21.5395 6.57186 21.6417C6.67336 21.7439 6.81103 21.8013 6.95458 21.8013H23.6325C24.9022 21.8013 25.9999 20.8563 25.9999 19.6213C25.9999 18.5182 25.1231 17.6505 24.0297 17.4772L25.9934 4.99305C26.0056 4.91524 26.0009 4.83569 25.9796 4.75989C25.9584 4.68408 25.921 4.61381 25.8702 4.55393C25.8194 4.49405 25.7563 4.44597 25.6852 4.41301C25.6142 4.38005 25.5369 4.363 25.4586 4.36301H5.07754L4.34795 0.445442C4.32477 0.320732 4.2591 0.208075 4.16227 0.12689C4.06545 0.0457053 3.94353 0.00108063 3.81753 0.000709254H0.570065C0.551675 -0.000236418 0.533249 -0.000236418 0.514858 0.000709254ZM21.1287 21.8013C20.2378 21.8013 19.5049 22.5393 19.5049 23.4364C19.5049 24.3335 20.2378 25.0714 21.1287 25.0714C22.0196 25.0714 22.7524 24.3335 22.7524 23.4364C22.7524 22.5393 22.0196 21.8013 21.1287 21.8013ZM10.3038 21.8013C9.41291 21.8013 8.68006 22.5393 8.68006 23.4364C8.68006 24.3335 9.41291 25.0714 10.3038 25.0714C11.1947 25.0714 11.9275 24.3335 11.9275 23.4364C11.9275 22.5393 11.1947 21.8013 10.3038 21.8013ZM5.28105 5.45305H8.72445L8.90414 7.63093H5.6859L5.28105 5.45305ZM9.8091 5.45305H13.01V7.63093H9.98879L9.8091 5.45305ZM14.0925 5.45305H16.2575V7.63093H14.0925V5.45305ZM17.34 5.45305H20.5409L20.3612 7.63093H17.34V5.45305ZM21.6255 5.45305H24.8243L24.4822 7.63093H21.4458L21.6255 5.45305ZM5.88941 8.72096H8.99507L9.17476 10.901H6.29534L5.88941 8.72096ZM10.0797 8.72096H13.01V10.901H10.2594L10.0797 8.72096ZM14.0925 8.72096H16.2575V10.901H14.0925V8.72096ZM17.34 8.72096H20.2703L20.0906 10.901H17.34V8.72096ZM21.3549 8.72096H24.3101L23.968 10.901H21.1752L21.3549 8.72096ZM6.49777 11.9911H9.26569L9.44538 14.1711H6.9037L6.49777 11.9911ZM10.3503 11.9911H13.01V14.1711H10.53L10.3503 11.9911ZM14.0925 11.9911H16.2575V14.1711H14.0925V11.9911ZM17.34 11.9911H19.9996L19.8199 14.1711H17.34V11.9911ZM21.0843 11.9911H23.797L23.4539 14.1711H20.9046L21.0843 11.9911ZM7.10721 15.2611H9.53415L9.716 17.4412H7.51314L7.10721 15.2611ZM10.621 15.2611H13.01V17.4412H10.8007L10.621 15.2611ZM14.0925 15.2611H16.2575V17.4412H14.0925V15.2611ZM17.34 15.2611H19.729L19.5493 17.4412H17.34V15.2611ZM20.8148 15.2611H23.2828L22.9386 17.4412H20.634L20.8158 15.2611H20.8148ZM10.3038 22.8914C10.6091 22.8914 10.845 23.129 10.845 23.4364C10.845 23.7438 10.6091 23.9814 10.3038 23.9814C10.2324 23.9824 10.1616 23.969 10.0955 23.942C10.0293 23.915 9.96927 23.8749 9.91881 23.8241C9.86834 23.7732 9.82851 23.7127 9.80167 23.6462C9.77483 23.5796 9.76153 23.5082 9.76255 23.4364C9.76255 23.129 9.99853 22.8914 10.3038 22.8914ZM21.1287 22.8914C21.4339 22.8914 21.6699 23.129 21.6699 23.4364C21.6699 23.7438 21.4339 23.9814 21.1287 23.9814C21.0573 23.9824 20.9865 23.969 20.9203 23.942C20.8542 23.915 20.7941 23.8749 20.7437 23.8241C20.6932 23.7732 20.6534 23.7127 20.6266 23.6462C20.5997 23.5796 20.5864 23.5082 20.5874 23.4364C20.5874 23.129 20.8234 22.8914 21.1287 22.8914Z" fill="#167FFC"/>
</svg>
