<svg width="59" height="59" viewBox="0 0 59 59" fill="none" xmlns="http://www.w3.org/2000/svg">
<g clip-path="url(#clip0_446_158)">
<path d="M26.7344 46.0938H21.2031C20.9586 46.0938 20.7241 46.1909 20.5513 46.3638C20.3784 46.5366 20.2812 46.7711 20.2812 47.0156V52.5469C20.2812 52.7914 20.3784 53.0259 20.5513 53.1987C20.7241 53.3716 20.9586 53.4688 21.2031 53.4688H26.7344C26.9789 53.4688 27.2134 53.3716 27.3862 53.1987C27.5591 53.0259 27.6562 52.7914 27.6562 52.5469V47.0156C27.6562 46.7711 27.5591 46.5366 27.3862 46.3638C27.2134 46.1909 26.9789 46.0938 26.7344 46.0938ZM25.8125 51.625H22.125V47.9375H25.8125V51.625ZM44.25 52.829C44.3223 52.9732 44.4312 53.096 44.5658 53.1849C44.7004 53.2739 44.856 53.326 45.017 53.336H45.0742C45.226 53.3359 45.3754 53.2984 45.5092 53.2266C45.643 53.1549 45.757 53.0512 45.8412 52.9248L49.5287 47.3936C49.5958 47.2929 49.6425 47.1799 49.6661 47.0611C49.6896 46.9424 49.6895 46.8201 49.6658 46.7014C49.6421 46.5827 49.5952 46.4698 49.5279 46.3691C49.4605 46.2685 49.374 46.1821 49.2733 46.115C49.1726 46.0478 49.0596 46.0011 48.9408 45.9775C48.8221 45.954 48.6998 45.9541 48.5811 45.9778C48.4624 46.0015 48.3495 46.0484 48.2488 46.1157C48.1482 46.1831 48.0618 46.2696 47.9947 46.3703L45.1885 50.5796L44.0656 48.3173C43.9563 48.0985 43.7646 47.932 43.5326 47.8546C43.3006 47.7771 43.0473 47.795 42.8285 47.9043C42.6096 48.0136 42.4432 48.2053 42.3657 48.4374C42.2883 48.6694 42.3062 48.9226 42.4155 49.1415L44.25 52.829ZM43.3281 42.4062H48.8594C49.1039 42.4062 49.3384 42.3091 49.5112 42.1362C49.6841 41.9634 49.7812 41.7289 49.7812 41.4844V35.9531C49.7812 35.7086 49.6841 35.4741 49.5112 35.3013C49.3384 35.1284 49.1039 35.0312 48.8594 35.0312H43.3281C43.0836 35.0312 42.8491 35.1284 42.6763 35.3013C42.5034 35.4741 42.4062 35.7086 42.4062 35.9531V41.4844C42.4062 41.7289 42.5034 41.9634 42.6763 42.1362C42.8491 42.3091 43.0836 42.4062 43.3281 42.4062ZM44.25 36.875H47.9375V40.5625H44.25V36.875ZM43.3281 31.3438H48.8594C49.1039 31.3438 49.3384 31.2466 49.5112 31.0737C49.6841 30.9009 49.7812 30.6664 49.7812 30.4219V24.8906C49.7812 24.6461 49.6841 24.4116 49.5112 24.2388C49.3384 24.0659 49.1039 23.9688 48.8594 23.9688H43.3281C43.0836 23.9688 42.8491 24.0659 42.6763 24.2388C42.5034 24.4116 42.4062 24.6461 42.4062 24.8906V30.4219C42.4062 30.6664 42.5034 30.9009 42.6763 31.0737C42.8491 31.2466 43.0836 31.3438 43.3281 31.3438ZM44.25 25.8125H47.9375V29.5H44.25V25.8125ZM10.1406 42.4062H15.6719C15.9164 42.4062 16.1509 42.3091 16.3237 42.1362C16.4966 41.9634 16.5938 41.7289 16.5938 41.4844V35.9531C16.5938 35.7086 16.4966 35.4741 16.3237 35.3013C16.1509 35.1284 15.9164 35.0312 15.6719 35.0312H10.1406C9.89613 35.0312 9.66165 35.1284 9.48876 35.3013C9.31588 35.4741 9.21875 35.7086 9.21875 35.9531V41.4844C9.21875 41.7289 9.31588 41.9634 9.48876 42.1362C9.66165 42.3091 9.89613 42.4062 10.1406 42.4062ZM11.0625 36.875H14.75V40.5625H11.0625V36.875ZM10.1406 53.4688H15.6719C15.9164 53.4688 16.1509 53.3716 16.3237 53.1987C16.4966 53.0259 16.5938 52.7914 16.5938 52.5469V47.0156C16.5938 46.7711 16.4966 46.5366 16.3237 46.3638C16.1509 46.1909 15.9164 46.0938 15.6719 46.0938H10.1406C9.89613 46.0938 9.66165 46.1909 9.48876 46.3638C9.31588 46.5366 9.21875 46.7711 9.21875 47.0156V52.5469C9.21875 52.7914 9.31588 53.0259 9.48876 53.1987C9.66165 53.3716 9.89613 53.4688 10.1406 53.4688ZM11.0625 47.9375H14.75V51.625H11.0625V47.9375ZM10.1406 31.3438H15.6719C15.9164 31.3438 16.1509 31.2466 16.3237 31.0737C16.4966 30.9009 16.5938 30.6664 16.5938 30.4219V24.8906C16.5938 24.6461 16.4966 24.4116 16.3237 24.2388C16.1509 24.0659 15.9164 23.9688 15.6719 23.9688H10.1406C9.89613 23.9688 9.66165 24.0659 9.48876 24.2388C9.31588 24.4116 9.21875 24.6461 9.21875 24.8906V30.4219C9.21875 30.6664 9.31588 30.9009 9.48876 31.0737C9.66165 31.2466 9.89613 31.3438 10.1406 31.3438ZM11.0625 25.8125H14.75V29.5H11.0625V25.8125ZM50.7031 7.375H49.7812V3.6875C49.7812 2.70951 49.3927 1.77158 48.7012 1.08004C48.0097 0.388503 47.0717 0 46.0938 0C45.1158 0 44.1778 0.388503 43.4863 1.08004C42.7948 1.77158 42.4062 2.70951 42.4062 3.6875V7.375H16.5938V3.6875C16.5938 2.70951 16.2052 1.77158 15.5137 1.08004C14.8222 0.388503 13.8842 0 12.9062 0C11.9283 0 10.9903 0.388503 10.2988 1.08004C9.60725 1.77158 9.21875 2.70951 9.21875 3.6875V7.375H8.29688C7.07439 7.375 5.90198 7.86063 5.03755 8.72505C4.17313 9.58948 3.6875 10.7619 3.6875 11.9844V54.3906C3.6875 55.6131 4.17313 56.7855 5.03755 57.6499C5.90198 58.5144 7.07439 59 8.29688 59H50.7031C51.9256 59 53.098 58.5144 53.9624 57.6499C54.8269 56.7855 55.3125 55.6131 55.3125 54.3906V11.9844C55.3125 10.7619 54.8269 9.58948 53.9624 8.72505C53.098 7.86063 51.9256 7.375 50.7031 7.375ZM44.25 3.6875C44.25 3.19851 44.4443 2.72954 44.79 2.38377C45.1358 2.038 45.6048 1.84375 46.0938 1.84375C46.5827 1.84375 47.0517 2.038 47.3975 2.38377C47.7432 2.72954 47.9375 3.19851 47.9375 3.6875V11.0625C47.9375 11.5515 47.7432 12.0205 47.3975 12.3662C47.0517 12.712 46.5827 12.9062 46.0938 12.9062C45.6048 12.9062 45.1358 12.712 44.79 12.3662C44.4443 12.0205 44.25 11.5515 44.25 11.0625V3.6875ZM11.0625 3.6875C11.0625 3.19851 11.2568 2.72954 11.6025 2.38377C11.9483 2.038 12.4173 1.84375 12.9062 1.84375C13.3952 1.84375 13.8642 2.038 14.21 2.38377C14.5557 2.72954 14.75 3.19851 14.75 3.6875V11.0625C14.75 11.5515 14.5557 12.0205 14.21 12.3662C13.8642 12.712 13.3952 12.9062 12.9062 12.9062C12.4173 12.9062 11.9483 12.712 11.6025 12.3662C11.2568 12.0205 11.0625 11.5515 11.0625 11.0625V3.6875ZM53.4688 54.3906C53.4688 55.1241 53.1774 55.8276 52.6587 56.3462C52.1401 56.8649 51.4366 57.1562 50.7031 57.1562H8.29688C7.56339 57.1562 6.85994 56.8649 6.34128 56.3462C5.82263 55.8276 5.53125 55.1241 5.53125 54.3906V20.2812H53.4688V54.3906ZM53.4688 18.4375H5.53125V11.9844C5.53125 11.2509 5.82263 10.5474 6.34128 10.0288C6.85994 9.51013 7.56339 9.21875 8.29688 9.21875H9.21875V11.0625C9.21875 12.0405 9.60725 12.9784 10.2988 13.67C10.9903 14.3615 11.9283 14.75 12.9062 14.75C13.8842 14.75 14.8222 14.3615 15.5137 13.67C16.2052 12.9784 16.5938 12.0405 16.5938 11.0625V9.21875H42.4062V11.0625C42.4062 12.0405 42.7948 12.9784 43.4863 13.67C44.1778 14.3615 45.1158 14.75 46.0938 14.75C47.0717 14.75 48.0097 14.3615 48.7012 13.67C49.3927 12.9784 49.7812 12.0405 49.7812 11.0625V9.21875H50.7031C51.4366 9.21875 52.1401 9.51013 52.6587 10.0288C53.1774 10.5474 53.4688 11.2509 53.4688 11.9844V18.4375ZM22.125 30.704C22.1973 30.8482 22.3062 30.971 22.4408 31.0599C22.5754 31.1489 22.731 31.201 22.892 31.211H22.9492C23.101 31.2109 23.2504 31.1734 23.3842 31.1016C23.518 31.0299 23.632 30.9262 23.7162 30.7998L27.4037 25.2686C27.4708 25.1679 27.5175 25.0549 27.5411 24.9361C27.5646 24.8174 27.5645 24.6951 27.5408 24.5764C27.5171 24.4577 27.4702 24.3448 27.4029 24.2441C27.3355 24.1435 27.249 24.0571 27.1483 23.99C27.0476 23.9228 26.9346 23.8761 26.8158 23.8525C26.6971 23.829 26.5748 23.8291 26.4561 23.8528C26.3374 23.8765 26.2245 23.9234 26.1238 23.9907C26.0232 24.0581 25.9368 24.1446 25.8697 24.2453L23.0635 28.4546L21.9406 26.1923C21.8865 26.084 21.8116 25.9873 21.7201 25.9079C21.6287 25.8285 21.5225 25.7679 21.4076 25.7296C21.2927 25.6912 21.1714 25.6759 21.0506 25.6844C20.9298 25.693 20.8118 25.7252 20.7035 25.7793C20.5951 25.8334 20.4985 25.9084 20.4191 25.9998C20.3397 26.0913 20.2791 26.1975 20.2407 26.3124C20.2024 26.4272 20.187 26.5485 20.1956 26.6694C20.2041 26.7902 20.2364 26.9081 20.2905 27.0165L22.125 30.704ZM32.2656 31.3438H37.7969C38.0414 31.3438 38.2759 31.2466 38.4487 31.0737C38.6216 30.9009 38.7188 30.6664 38.7188 30.4219V24.8906C38.7188 24.6461 38.6216 24.4116 38.4487 24.2388C38.2759 24.0659 38.0414 23.9688 37.7969 23.9688H32.2656C32.0211 23.9688 31.7866 24.0659 31.6138 24.2388C31.4409 24.4116 31.3438 24.6461 31.3438 24.8906V30.4219C31.3438 30.6664 31.4409 30.9009 31.6138 31.0737C31.7866 31.2466 32.0211 31.3438 32.2656 31.3438ZM33.1875 25.8125H36.875V29.5H33.1875V25.8125ZM32.2656 53.4688H37.7969C38.0414 53.4688 38.2759 53.3716 38.4487 53.1987C38.6216 53.0259 38.7188 52.7914 38.7188 52.5469V47.0156C38.7188 46.7711 38.6216 46.5366 38.4487 46.3638C38.2759 46.1909 38.0414 46.0938 37.7969 46.0938H32.2656C32.0211 46.0938 31.7866 46.1909 31.6138 46.3638C31.4409 46.5366 31.3438 46.7711 31.3438 47.0156V52.5469C31.3438 52.7914 31.4409 53.0259 31.6138 53.1987C31.7866 53.3716 32.0211 53.4688 32.2656 53.4688ZM33.1875 47.9375H36.875V51.625H33.1875V47.9375ZM32.2656 42.4062H37.7969C38.0414 42.4062 38.2759 42.3091 38.4487 42.1362C38.6216 41.9634 38.7188 41.7289 38.7188 41.4844V35.9531C38.7188 35.7086 38.6216 35.4741 38.4487 35.3013C38.2759 35.1284 38.0414 35.0312 37.7969 35.0312H32.2656C32.0211 35.0312 31.7866 35.1284 31.6138 35.3013C31.4409 35.4741 31.3438 35.7086 31.3438 35.9531V41.4844C31.3438 41.7289 31.4409 41.9634 31.6138 42.1362C31.7866 42.3091 32.0211 42.4062 32.2656 42.4062ZM33.1875 36.875H36.875V40.5625H33.1875V36.875ZM26.7344 35.0312H21.2031C20.9586 35.0312 20.7241 35.1284 20.5513 35.3013C20.3784 35.4741 20.2812 35.7086 20.2812 35.9531V41.4844C20.2812 41.7289 20.3784 41.9634 20.5513 42.1362C20.7241 42.3091 20.9586 42.4062 21.2031 42.4062H26.7344C26.9789 42.4062 27.2134 42.3091 27.3862 42.1362C27.5591 41.9634 27.6562 41.7289 27.6562 41.4844V35.9531C27.6562 35.7086 27.5591 35.4741 27.3862 35.3013C27.2134 35.1284 26.9789 35.0312 26.7344 35.0312ZM25.8125 40.5625H22.125V36.875H25.8125V40.5625Z" fill="#167FFC"/>
</g>
<defs>
<clipPath id="clip0_446_158">
<rect width="59" height="59" fill="white"/>
</clipPath>
</defs>
</svg>
