<svg width="17" height="17" viewBox="0 0 17 17" fill="none" xmlns="http://www.w3.org/2000/svg">
<g clip-path="url(#clip0_490_70)">
<path d="M16.5038 14.2502L12.7691 10.5156C13.4194 9.46262 13.8125 8.23438 13.8125 6.90625C13.8125 3.09187 10.7206 0 6.90625 0C3.09187 0 0 3.09187 0 6.90625C0 10.7206 3.09187 13.8125 6.90625 13.8125C8.23438 13.8125 9.46262 13.4194 10.5145 12.7702L14.2502 16.5049C14.5509 16.7956 14.9537 16.9565 15.3719 16.9529C15.7901 16.9494 16.1902 16.7816 16.4858 16.4858C16.7815 16.19 16.949 15.7899 16.9524 15.3717C16.9558 14.9535 16.7947 14.5508 16.5038 14.2502ZM6.90625 11.6875C4.26594 11.6875 2.125 9.54656 2.125 6.90625C2.125 4.26594 4.26594 2.125 6.90625 2.125C9.54656 2.125 11.6875 4.26594 11.6875 6.90625C11.6875 9.54656 9.54656 11.6875 6.90625 11.6875Z" fill="white"/>
</g>
<defs>
<clipPath id="clip0_490_70">
<rect width="17" height="17" fill="white"/>
</clipPath>
</defs>
</svg>
