<svg width="59" height="59" viewBox="0 0 59 59" fill="none" xmlns="http://www.w3.org/2000/svg">
<path d="M44.25 22.9842V16.5938C44.25 12.6818 42.696 8.93009 39.9298 6.16393C37.1637 3.39776 33.4119 1.84375 29.5 1.84375C25.5881 1.84375 21.8363 3.39776 19.0702 6.16393C16.304 8.93009 14.75 12.6818 14.75 16.5938V22.986C11.1969 26.7373 9.21731 31.7081 9.21875 36.875C9.21875 48.0739 18.3011 57.1562 29.5 57.1562C40.7026 57.1562 49.7812 48.0739 49.7812 36.875C49.7812 31.4931 47.6702 26.6164 44.25 22.9842ZM18.4375 16.5938C18.4375 10.4928 23.399 5.53125 29.5 5.53125C35.601 5.53125 40.5625 10.4928 40.5625 16.5938V19.8904C37.2749 17.7373 33.4299 16.5915 29.5 16.5938C25.5701 16.5915 21.7251 17.7373 18.4375 19.8904V16.5938ZM29.5 53.4688C20.3347 53.4688 12.9063 46.0403 12.9063 36.875C12.9063 27.7097 20.3347 20.2812 29.5 20.2812C38.6653 20.2812 46.0938 27.7097 46.0938 36.875C46.0938 46.0403 38.6653 53.4688 29.5 53.4688Z" fill="#167FFC"/>
</svg>
