<svg width="91" height="98" viewBox="0 0 91 98" fill="none" xmlns="http://www.w3.org/2000/svg">
<g clip-path="url(#clip0_490_95)">
<path d="M87.1772 15.1812L72.7773 0.78125H17.3556L2.95573 15.1812L45.0935 61.0449L87.1772 15.1812ZM45.0935 16.9811H56.9914L45.0935 52.6929L33.1955 16.9811H45.0935ZM35.4815 13.3812L45.0935 4.97522L54.7054 13.3812H35.4815ZM60.7894 16.9811H80.5892L49.4674 50.9469L60.7894 16.9811ZM63.8313 13.3812L72.0933 5.11922L80.3552 13.3812H63.8313ZM59.4934 12.7152L49.8814 4.38123H67.7553L59.4934 12.7152ZM30.8736 12.7152L22.4316 4.38123H40.3055L30.8736 12.7152ZM26.3556 13.3812H9.83169L18.0936 5.11922L26.3556 13.3812ZM29.3976 16.9811L40.7195 50.9469L9.57969 16.9811H29.3976ZM88.2932 73.8068C85.5572 71.1068 80.6972 71.0888 80.1752 71.1068L52.2934 70.9808C52.1379 68.5551 51.1232 66.2641 49.4314 64.5188C47.7788 62.9289 45.5864 62.0223 43.2935 61.9809H23.4936C21.2914 61.926 19.1067 62.3856 17.1131 63.323C15.1196 64.2604 13.3722 65.6498 12.0097 67.3808H0.09375V97.9806H40.1075C64.3353 97.9806 90.0932 91.0327 90.0932 78.1807C90.1045 77.3679 89.9508 76.5611 89.6414 75.8093C89.332 75.0575 88.8734 74.3763 88.2932 73.8068ZM3.69373 94.3806V70.9808H10.7137L10.8937 94.3806H3.69373ZM40.1075 94.3806H14.4937V70.0808C15.4979 68.638 16.8479 67.4701 18.4202 66.684C19.9925 65.8979 21.7368 65.5186 23.4936 65.5808H43.2935C44.6 65.6395 45.8408 66.1704 46.7854 67.0748C47.8067 68.138 48.4406 69.5137 48.5854 70.9808H34.2935V74.5808H50.3674L80.1932 74.7068C82.1826 74.6467 84.1387 75.2272 85.7732 76.3628C86.0112 76.5967 86.1981 76.8774 86.322 77.1872C86.4459 77.4971 86.5042 77.8292 86.4932 78.1628C86.4932 86.9647 65.2533 94.3806 40.1075 94.3806Z" fill="#167FFC"/>
</g>
<defs>
<clipPath id="clip0_490_95">
<rect width="91" height="98" fill="white"/>
</clipPath>
</defs>
</svg>
