<svg width="59" height="59" viewBox="0 0 59 59" fill="none" xmlns="http://www.w3.org/2000/svg">
<mask id="path-1-inside-1_446_121" fill="white">
<path d="M45.1719 46.0937H40.5625C39.1075 45.9895 37.7432 45.3482 36.7346 44.2943C35.726 43.2404 35.1452 41.8492 35.105 40.391L37.6143 38.5657C39.4447 37.2329 40.7775 35.3271 41.4014 33.1506L41.6466 32.2896C41.8034 32.3165 41.9616 32.3344 42.1205 32.343C43.0386 32.3426 43.9291 32.0291 44.6451 31.4544C45.3611 30.8796 45.8597 30.0779 46.0586 29.1816C46.2575 28.2853 46.1449 27.3479 45.7394 26.5242C45.3338 25.7006 44.6595 25.0398 43.8278 24.6509L44.0546 23.8581C44.6224 23.7062 45.1266 23.3762 45.4931 22.9166C45.8596 22.4571 46.0692 21.8922 46.091 21.3048C46.1129 20.7174 45.9459 20.1384 45.6146 19.6529C45.2832 19.1674 44.805 18.8009 44.25 18.6071V18.4375C44.254 16.5003 43.8736 14.5816 43.1308 12.7925C42.388 11.0034 41.2976 9.37947 39.9227 8.01477C39.5431 7.64837 39.141 7.306 38.7188 6.98964V6.45311C38.7188 5.71962 38.4274 5.01618 37.9087 4.49752C37.3901 3.97887 36.6866 3.68749 35.9531 3.68749H33.5415L33.5249 3.55105C33.4006 2.57155 32.9233 1.67102 32.1825 1.01827C31.4417 0.365531 30.4883 0.00540161 29.5009 0.00540161C28.5136 0.00540161 27.5601 0.365531 26.8193 1.01827C26.0785 1.67102 25.6012 2.57155 25.4769 3.55105L25.4585 3.68749H23.0469C22.3134 3.68749 21.6099 3.97887 21.0913 4.49752C20.5726 5.01618 20.2812 5.71962 20.2812 6.45311V6.98411C18.5601 8.35685 17.1695 10.0988 16.2121 12.0813C15.2547 14.0637 14.755 16.236 14.75 18.4375V18.6071C14.1943 18.8004 13.7153 19.1669 13.3834 19.6526C13.0514 20.1384 12.8841 20.7178 12.906 21.3058C12.9278 21.8937 13.1378 22.4591 13.5049 22.9189C13.872 23.3787 14.3769 23.7085 14.9454 23.86L15.1722 24.6528C14.3405 25.0416 13.6662 25.7024 13.2606 26.5261C12.8551 27.3498 12.7425 28.2871 12.9414 29.1835C13.1403 30.0798 13.6389 30.8815 14.3549 31.4562C15.0709 32.031 15.9614 32.3444 16.8795 32.3449C17.0384 32.3362 17.1966 32.3184 17.3534 32.2914L17.5986 33.1525C18.2233 35.3285 19.5568 37.2337 21.3875 38.5657L23.8968 40.391C23.8566 41.8495 23.2756 43.2409 22.2666 44.2949C21.2576 45.3488 19.8928 45.99 18.4375 46.0937H13.8281C11.6277 46.0937 9.51731 46.9679 7.96135 48.5238C6.40538 50.0798 5.53125 52.1901 5.53125 54.3906V58.0781C5.53125 58.3226 5.62838 58.5571 5.80126 58.73C5.97415 58.9029 6.20863 59 6.45312 59H52.5469C52.7914 59 53.0259 58.9029 53.1987 58.73C53.3716 58.5571 53.4688 58.3226 53.4688 58.0781V54.3906C53.4688 52.1901 52.5946 50.0798 51.0387 48.5238C49.4827 46.9679 47.3723 46.0937 45.1719 46.0937ZM44.25 28.7994C44.1363 29.2691 43.869 29.6874 43.4906 29.988C43.1122 30.2886 42.6443 30.4542 42.161 30.4587L43.2968 26.4855C43.6739 26.7267 43.9677 27.0781 44.1383 27.4921C44.3088 27.9061 44.3478 28.3625 44.25 28.7994ZM20.2812 9.45843V11.9844C20.2812 12.2289 20.3784 12.4633 20.5513 12.6362C20.7241 12.8091 20.9586 12.9062 21.2031 12.9062C21.4476 12.9062 21.6821 12.8091 21.855 12.6362C22.0279 12.4633 22.125 12.2289 22.125 11.9844V6.45311C22.125 6.20862 22.2221 5.97413 22.395 5.80125C22.5679 5.62836 22.8024 5.53124 23.0469 5.53124H25.1285C25.1533 5.57465 25.1817 5.61596 25.2133 5.65477L23.9688 15.5575C23.9528 15.6788 23.9611 15.8019 23.9931 15.9199C24.0252 16.0379 24.0804 16.1483 24.1556 16.2447C24.2307 16.3411 24.3243 16.4217 24.4309 16.4816C24.5375 16.5415 24.6549 16.5796 24.7763 16.5937C25.0203 16.621 25.2652 16.5518 25.4588 16.4009C25.6524 16.25 25.7794 16.0294 25.8125 15.7862L27.3059 3.77968C27.3736 3.24527 27.6339 2.7539 28.038 2.39772C28.4421 2.04154 28.9623 1.84502 29.5009 1.84502C30.0396 1.84502 30.5598 2.04154 30.9639 2.39772C31.368 2.7539 31.6283 3.24527 31.6959 3.77968L33.1875 15.7862C33.2155 16.0104 33.3249 16.2165 33.4948 16.3653C33.6648 16.5142 33.8835 16.5955 34.1094 16.5937C34.1481 16.5961 34.1868 16.5961 34.2255 16.5937C34.3468 16.5794 34.464 16.5411 34.5704 16.4811C34.6767 16.4211 34.7701 16.3405 34.8451 16.2441C34.92 16.1477 34.9751 16.0374 35.007 15.9195C35.039 15.8017 35.0472 15.6786 35.0312 15.5575L33.7867 5.6013C33.8015 5.57918 33.8217 5.56258 33.8365 5.54046H35.9531C36.1976 5.54046 36.4321 5.63758 36.605 5.81047C36.7779 5.98335 36.875 6.21784 36.875 6.46233V11.9936C36.875 12.2381 36.9721 12.4726 37.145 12.6454C37.3179 12.8183 37.5524 12.9155 37.7969 12.9155C38.0414 12.9155 38.2759 12.8183 38.4487 12.6454C38.6216 12.4726 38.7188 12.2381 38.7188 11.9936V9.42708C41.086 11.8281 42.411 15.0657 42.4062 18.4375H16.5938C16.603 15.0777 17.9265 11.8549 20.2812 9.45843ZM15.6719 20.2812H43.3281C43.5726 20.2812 43.8071 20.3784 43.98 20.5512C44.1529 20.7241 44.25 20.9586 44.25 21.2031C44.25 21.4476 44.1529 21.6821 43.98 21.855C43.8071 22.0279 43.5726 22.125 43.3281 22.125H15.6719C15.4274 22.125 15.1929 22.0279 15.02 21.855C14.8471 21.6821 14.75 21.4476 14.75 21.2031C14.75 20.9586 14.8471 20.7241 15.02 20.5512C15.1929 20.3784 15.4274 20.2812 15.6719 20.2812ZM14.75 28.8012C14.6521 28.364 14.691 27.9073 14.8615 27.4931C15.0321 27.0788 15.3259 26.727 15.7032 26.4855L16.839 30.4587C16.356 30.4543 15.8882 30.2889 15.5098 29.9887C15.1315 29.6885 14.8641 29.2706 14.75 28.8012ZM19.3797 32.6454L16.8943 23.9687H42.1057L39.6277 32.6454C39.1141 34.4234 38.0238 35.9801 36.5284 37.0704L32.2103 40.2048C31.4231 40.7795 30.4737 41.0891 29.4991 41.0891C28.5245 41.0891 27.575 40.7795 26.7878 40.2048L22.4698 37.0704C20.9751 35.9798 19.8854 34.4232 19.3723 32.6454H19.3797ZM25.6005 41.6263L25.7129 41.7075C26.8148 42.5122 28.1439 42.9459 29.5083 42.9459C30.8727 42.9459 32.2018 42.5122 33.3037 41.7075L33.4161 41.6263C33.6453 42.7744 34.1208 43.8591 34.81 44.8054C35.4992 45.7518 36.3855 46.5373 37.4078 47.1078C36.5985 48.4835 35.4439 49.624 34.0584 50.4163C32.6728 51.2087 31.1044 51.6255 29.5083 51.6255C27.9122 51.6255 26.3437 51.2087 24.9582 50.4163C23.5727 49.624 22.4181 48.4835 21.6088 47.1078C22.6297 46.5365 23.5146 45.7506 24.2025 44.8043C24.8903 43.858 25.3648 42.7737 25.5931 41.6263H25.6005ZM51.625 57.1562H7.375V54.3906C7.375 52.6791 8.05488 51.0378 9.26508 49.8276C10.4753 48.6174 12.1166 47.9375 13.8281 47.9375H18.4375C18.9193 47.9373 19.3997 47.8848 19.8701 47.7808C20.8193 49.504 22.2136 50.941 23.9074 51.9417C25.6013 52.9425 27.5326 53.4704 29.5 53.4704C31.4674 53.4704 33.3987 52.9425 35.0926 51.9417C36.7864 50.941 38.1807 49.504 39.1299 47.7808C39.6003 47.8848 40.0807 47.9373 40.5625 47.9375H45.1719C46.8834 47.9375 48.5247 48.6174 49.7349 49.8276C50.9451 51.0378 51.625 52.6791 51.625 54.3906V57.1562Z"/>
</mask>
<path d="M45.1719 46.0937H40.5625C39.1075 45.9895 37.7432 45.3482 36.7346 44.2943C35.726 43.2404 35.1452 41.8492 35.105 40.391L37.6143 38.5657C39.4447 37.2329 40.7775 35.3271 41.4014 33.1506L41.6466 32.2896C41.8034 32.3165 41.9616 32.3344 42.1205 32.343C43.0386 32.3426 43.9291 32.0291 44.6451 31.4544C45.3611 30.8796 45.8597 30.0779 46.0586 29.1816C46.2575 28.2853 46.1449 27.3479 45.7394 26.5242C45.3338 25.7006 44.6595 25.0398 43.8278 24.6509L44.0546 23.8581C44.6224 23.7062 45.1266 23.3762 45.4931 22.9166C45.8596 22.4571 46.0692 21.8922 46.091 21.3048C46.1129 20.7174 45.9459 20.1384 45.6146 19.6529C45.2832 19.1674 44.805 18.8009 44.25 18.6071V18.4375C44.254 16.5003 43.8736 14.5816 43.1308 12.7925C42.388 11.0034 41.2976 9.37947 39.9227 8.01477C39.5431 7.64837 39.141 7.306 38.7188 6.98964V6.45311C38.7188 5.71962 38.4274 5.01618 37.9087 4.49752C37.3901 3.97887 36.6866 3.68749 35.9531 3.68749H33.5415L33.5249 3.55105C33.4006 2.57155 32.9233 1.67102 32.1825 1.01827C31.4417 0.365531 30.4883 0.00540161 29.5009 0.00540161C28.5136 0.00540161 27.5601 0.365531 26.8193 1.01827C26.0785 1.67102 25.6012 2.57155 25.4769 3.55105L25.4585 3.68749H23.0469C22.3134 3.68749 21.6099 3.97887 21.0913 4.49752C20.5726 5.01618 20.2812 5.71962 20.2812 6.45311V6.98411C18.5601 8.35685 17.1695 10.0988 16.2121 12.0813C15.2547 14.0637 14.755 16.236 14.75 18.4375V18.6071C14.1943 18.8004 13.7153 19.1669 13.3834 19.6526C13.0514 20.1384 12.8841 20.7178 12.906 21.3058C12.9278 21.8937 13.1378 22.4591 13.5049 22.9189C13.872 23.3787 14.3769 23.7085 14.9454 23.86L15.1722 24.6528C14.3405 25.0416 13.6662 25.7024 13.2606 26.5261C12.8551 27.3498 12.7425 28.2871 12.9414 29.1835C13.1403 30.0798 13.6389 30.8815 14.3549 31.4562C15.0709 32.031 15.9614 32.3444 16.8795 32.3449C17.0384 32.3362 17.1966 32.3184 17.3534 32.2914L17.5986 33.1525C18.2233 35.3285 19.5568 37.2337 21.3875 38.5657L23.8968 40.391C23.8566 41.8495 23.2756 43.2409 22.2666 44.2949C21.2576 45.3488 19.8928 45.99 18.4375 46.0937H13.8281C11.6277 46.0937 9.51731 46.9679 7.96135 48.5238C6.40538 50.0798 5.53125 52.1901 5.53125 54.3906V58.0781C5.53125 58.3226 5.62838 58.5571 5.80126 58.73C5.97415 58.9029 6.20863 59 6.45312 59H52.5469C52.7914 59 53.0259 58.9029 53.1987 58.73C53.3716 58.5571 53.4688 58.3226 53.4688 58.0781V54.3906C53.4688 52.1901 52.5946 50.0798 51.0387 48.5238C49.4827 46.9679 47.3723 46.0937 45.1719 46.0937ZM44.25 28.7994C44.1363 29.2691 43.869 29.6874 43.4906 29.988C43.1122 30.2886 42.6443 30.4542 42.161 30.4587L43.2968 26.4855C43.6739 26.7267 43.9677 27.0781 44.1383 27.4921C44.3088 27.9061 44.3478 28.3625 44.25 28.7994ZM20.2812 9.45843V11.9844C20.2812 12.2289 20.3784 12.4633 20.5513 12.6362C20.7241 12.8091 20.9586 12.9062 21.2031 12.9062C21.4476 12.9062 21.6821 12.8091 21.855 12.6362C22.0279 12.4633 22.125 12.2289 22.125 11.9844V6.45311C22.125 6.20862 22.2221 5.97413 22.395 5.80125C22.5679 5.62836 22.8024 5.53124 23.0469 5.53124H25.1285C25.1533 5.57465 25.1817 5.61596 25.2133 5.65477L23.9688 15.5575C23.9528 15.6788 23.9611 15.8019 23.9931 15.9199C24.0252 16.0379 24.0804 16.1483 24.1556 16.2447C24.2307 16.3411 24.3243 16.4217 24.4309 16.4816C24.5375 16.5415 24.6549 16.5796 24.7763 16.5937C25.0203 16.621 25.2652 16.5518 25.4588 16.4009C25.6524 16.25 25.7794 16.0294 25.8125 15.7862L27.3059 3.77968C27.3736 3.24527 27.6339 2.7539 28.038 2.39772C28.4421 2.04154 28.9623 1.84502 29.5009 1.84502C30.0396 1.84502 30.5598 2.04154 30.9639 2.39772C31.368 2.7539 31.6283 3.24527 31.6959 3.77968L33.1875 15.7862C33.2155 16.0104 33.3249 16.2165 33.4948 16.3653C33.6648 16.5142 33.8835 16.5955 34.1094 16.5937C34.1481 16.5961 34.1868 16.5961 34.2255 16.5937C34.3468 16.5794 34.464 16.5411 34.5704 16.4811C34.6767 16.4211 34.7701 16.3405 34.8451 16.2441C34.92 16.1477 34.9751 16.0374 35.007 15.9195C35.039 15.8017 35.0472 15.6786 35.0312 15.5575L33.7867 5.6013C33.8015 5.57918 33.8217 5.56258 33.8365 5.54046H35.9531C36.1976 5.54046 36.4321 5.63758 36.605 5.81047C36.7779 5.98335 36.875 6.21784 36.875 6.46233V11.9936C36.875 12.2381 36.9721 12.4726 37.145 12.6454C37.3179 12.8183 37.5524 12.9155 37.7969 12.9155C38.0414 12.9155 38.2759 12.8183 38.4487 12.6454C38.6216 12.4726 38.7188 12.2381 38.7188 11.9936V9.42708C41.086 11.8281 42.411 15.0657 42.4062 18.4375H16.5938C16.603 15.0777 17.9265 11.8549 20.2812 9.45843ZM15.6719 20.2812H43.3281C43.5726 20.2812 43.8071 20.3784 43.98 20.5512C44.1529 20.7241 44.25 20.9586 44.25 21.2031C44.25 21.4476 44.1529 21.6821 43.98 21.855C43.8071 22.0279 43.5726 22.125 43.3281 22.125H15.6719C15.4274 22.125 15.1929 22.0279 15.02 21.855C14.8471 21.6821 14.75 21.4476 14.75 21.2031C14.75 20.9586 14.8471 20.7241 15.02 20.5512C15.1929 20.3784 15.4274 20.2812 15.6719 20.2812ZM14.75 28.8012C14.6521 28.364 14.691 27.9073 14.8615 27.4931C15.0321 27.0788 15.3259 26.727 15.7032 26.4855L16.839 30.4587C16.356 30.4543 15.8882 30.2889 15.5098 29.9887C15.1315 29.6885 14.8641 29.2706 14.75 28.8012ZM19.3797 32.6454L16.8943 23.9687H42.1057L39.6277 32.6454C39.1141 34.4234 38.0238 35.9801 36.5284 37.0704L32.2103 40.2048C31.4231 40.7795 30.4737 41.0891 29.4991 41.0891C28.5245 41.0891 27.575 40.7795 26.7878 40.2048L22.4698 37.0704C20.9751 35.9798 19.8854 34.4232 19.3723 32.6454H19.3797ZM25.6005 41.6263L25.7129 41.7075C26.8148 42.5122 28.1439 42.9459 29.5083 42.9459C30.8727 42.9459 32.2018 42.5122 33.3037 41.7075L33.4161 41.6263C33.6453 42.7744 34.1208 43.8591 34.81 44.8054C35.4992 45.7518 36.3855 46.5373 37.4078 47.1078C36.5985 48.4835 35.4439 49.624 34.0584 50.4163C32.6728 51.2087 31.1044 51.6255 29.5083 51.6255C27.9122 51.6255 26.3437 51.2087 24.9582 50.4163C23.5727 49.624 22.4181 48.4835 21.6088 47.1078C22.6297 46.5365 23.5146 45.7506 24.2025 44.8043C24.8903 43.858 25.3648 42.7737 25.5931 41.6263H25.6005ZM51.625 57.1562H7.375V54.3906C7.375 52.6791 8.05488 51.0378 9.26508 49.8276C10.4753 48.6174 12.1166 47.9375 13.8281 47.9375H18.4375C18.9193 47.9373 19.3997 47.8848 19.8701 47.7808C20.8193 49.504 22.2136 50.941 23.9074 51.9417C25.6013 52.9425 27.5326 53.4704 29.5 53.4704C31.4674 53.4704 33.3987 52.9425 35.0926 51.9417C36.7864 50.941 38.1807 49.504 39.1299 47.7808C39.6003 47.8848 40.0807 47.9373 40.5625 47.9375H45.1719C46.8834 47.9375 48.5247 48.6174 49.7349 49.8276C50.9451 51.0378 51.625 52.6791 51.625 54.3906V57.1562Z" fill="#167FFC" stroke="#167FFC" stroke-width="94" mask="url(#path-1-inside-1_446_121)"/>
</svg>
